<?xml version="1.0" standalone="no"?>
<!DOCTYPE svg PUBLIC "-//W3C//DTD SVG 1.1//EN" "http://www.w3.org/Graphics/SVG/1.1/DTD/svg11.dtd" >
<svg xmlns="http://www.w3.org/2000/svg">
<metadata>
<json>
<![CDATA[
{
	"fontFamily": "Bosch-Icon",
	"majorVersion": 1,
	"minorVersion": 0,
	"description": "Version: 1.0 Date: 2018-03-09 Icon-count: 390\nFont generated by IcoMoon.",
	"copyright": "© 2018 Robert Bosch GmbH",
	"version": "Version 1.0",
	"fontId": "Bosch-Icon",
	"psName": "Bosch-Icon",
	"subFamily": "Regular",
	"fullName": "Bosch-Icon"
}
]]>
</json>
</metadata>
<defs>
<font id="Bosch-Icon" horiz-adv-x="1024">
<font-face units-per-em="1024" ascent="960" descent="-64" />
<missing-glyph horiz-adv-x="1024" />
<glyph unicode="&#x20;" horiz-adv-x="512" d="" />
<glyph unicode="&#x21;" glyph-name="route" data-tags="Bosch-IC-route" d="M505.6 40l-75.2 326.4-326.4 75.2 727.467 326.4-325.867-728zM237.333 454.4l228.267-52.8 52.8-228.267 228.267 509.867-509.333-228.8z" />
<glyph unicode="&#x22;" glyph-name="registration" data-tags="Bosch-IC-registration" d="M938.667 170.667h-853.333v554.667h853.333v-554.667zM128 213.333h768v469.333h-768v-469.333zM213.333 554.667h256v-42.667h-256v42.667zM213.333 448h256v-42.667h-256v42.667zM213.333 341.333h192v-42.667h-192v42.667zM640 332.267l-78.933 79.467 29.867 29.867 49.067-48.533 134.4 133.867 29.867-29.867z" />
<glyph unicode="&#x23;" glyph-name="anchor" data-tags="Bosch-IC-anchor" d="M533.333 554.667h-42.667v-42.667h42.667c23.467 0 42.667-19.2 42.667-42.667v-277.333c0-23.467-19.2-42.667-42.667-42.667h-362.667c-23.467 0-42.667 19.2-42.667 42.667v277.333c0 23.467 19.2 42.667 42.667 42.667h192v42.667h-192c-46.933 0-85.333-38.4-85.333-85.333v-277.333c0-46.933 38.4-85.333 85.333-85.333h362.667c46.933 0 85.333 38.4 85.333 85.333v277.333c0 46.933-38.4 85.333-85.333 85.333zM853.333 789.333h-362.667c-46.933 0-85.333-38.4-85.333-85.333v-277.333c0-46.933 38.4-85.333 85.333-85.333h42.667v42.667h-42.667c-23.467 0-42.667 19.2-42.667 42.667v277.333c0 23.467 19.2 42.667 42.667 42.667h362.667c23.467 0 42.667-19.2 42.667-42.667v-277.333c0-23.467-19.2-42.667-42.667-42.667h-192v-42.667h192c46.933 0 85.333 38.4 85.333 85.333v277.333c0 46.933-38.4 85.333-85.333 85.333z" />
<glyph unicode="&#x24;" glyph-name="postal-code" data-tags="Bosch-IC-postal-code" d="M938.667 170.667h-853.333v554.667h853.333v-554.667zM128 213.333h768v469.333h-768v-469.333zM512 576h341.333v-42.667h-341.333v42.667zM512 469.333h341.333v-42.667h-341.333v42.667zM512 362.667h256v-42.667h-256v42.667zM320 448c-35.2 0-64 28.8-64 64s28.8 64 64 64 64-28.8 64-64-28.8-64-64-64zM320 533.333c-11.733 0-21.333-9.6-21.333-21.333s9.6-21.333 21.333-21.333 21.333 9.6 21.333 21.333-9.6 21.333-21.333 21.333zM320 245.333l-18.667 32c0 0-73.067 125.333-88.533 152.533-13.333 21.333-20.8 51.2-20.8 82.133 0 70.4 57.6 128 128 128s128-57.6 128-128c0-30.933-7.467-60.8-20.8-82.133-16-27.2-88.533-152.533-88.533-152.533l-18.667-32zM320 597.333c-46.933 0-85.333-38.4-85.333-85.333 0-22.933 5.333-45.333 14.4-59.733l0.533-0.533c10.667-18.133 47.467-82.133 70.4-121.067 22.933 39.467 59.733 102.933 70.4 121.067l0.533 0.533c9.067 14.4 14.4 36.8 14.4 59.733 0 46.933-38.4 85.333-85.333 85.333z" />
<glyph unicode="&#x25;" glyph-name="info-i" data-tags="Bosch-IC-info-i" d="M540.8 675.2c0-16-13.333-28.8-28.8-28.8-16 0-28.8 13.333-28.8 28.8 0 16 13.333 28.8 28.8 28.8 16 0 28.8-13.333 28.8-28.8zM491.2 594.667h43.733v-274.667h-43.733v274.667zM512 27.2l-114.667 161.6c-150.933 46.4-248 172.8-248 323.2 0 200 162.667 362.667 362.667 362.667s362.667-162.667 362.667-362.667c0-150.4-97.067-276.8-248-323.733l-114.667-161.067zM512 832c-176.533 0-320-143.467-320-320 0-133.333 88-245.333 224.533-284.8l6.933-2.133 88.533-124.267 88 124.267 6.933 2.133c137.067 39.467 225.067 151.467 225.067 284.8 0 176.533-143.467 320-320 320z" />
<glyph unicode="&#x26;" glyph-name="promotion-frame" data-tags="Bosch-IC-promotion-frame" d="M474.667 538.667c0-64-35.2-107.2-88-107.2-52.267 0-88 42.667-88 106.133 0 65.067 35.2 107.733 89.067 107.733 51.733 0 86.933-43.2 86.933-106.667zM339.733 537.6c0-47.467 15.467-70.933 46.4-70.933 32 0 47.467 22.933 47.467 71.467 0 48-16 72.533-46.4 72.533-32-0.533-47.467-24-47.467-73.067zM600.533 642.133h37.333l-213.333-388.8h-37.867l213.867 388.8zM725.333 357.333c0-64-35.2-107.2-88-107.2-52.267 0-88 42.667-88 106.133 0 65.067 35.2 108.267 89.067 108.267 51.733 0 86.933-43.2 86.933-107.2zM590.4 356.267c0-47.467 15.467-70.4 46.4-70.4 32 0 47.467 22.933 47.467 71.467 0 48-16 72.533-46.4 72.533-32-0.533-47.467-24-47.467-73.6zM512 832c211.733 0 384-172.267 384-384s-172.267-384-384-384-384 172.267-384 384 172.267 384 384 384zM512 874.667c-235.733 0-426.667-190.933-426.667-426.667s190.933-426.667 426.667-426.667 426.667 190.933 426.667 426.667-190.933 426.667-426.667 426.667v0z" />
<glyph unicode="&#x27;" glyph-name="arrow-left-down-frame" data-tags="Bosch-IC-arrow-left-down-frame" d="M646.4 612.267l-241.067-240.533v99.2h-42.667v-172.267h172.267v42.667h-99.2l240.533 241.067zM813.867 749.867c-166.4 166.4-436.8 166.4-603.2 0s-166.4-436.8 0-603.2c82.667-83.733 192-125.333 301.333-125.333s218.667 41.6 301.867 124.8c166.4 166.4 166.4 437.333 0 603.733zM783.467 176.533c-149.867-149.867-393.6-149.867-542.933 0s-149.867 393.067 0 542.933c74.667 74.667 173.333 112.533 271.467 112.533s196.8-37.333 271.467-112.533c149.867-149.867 149.867-393.067 0-542.933z" />
<glyph unicode="&#x28;" glyph-name="address-consumer-data" data-tags="Bosch-IC-address-consumer-data" d="M85.333 725.333v-554.667h853.333v554.667h-853.333zM192 213.333c0 70.4 57.6 128 128 128s128-57.6 128-128h-256zM320 405.333c-35.2 0-64 28.8-64 64s28.8 64 64 64 64-28.8 64-64-28.8-64-64-64zM896 213.333h-405.333c0 76.267-50.133 140.8-118.933 162.667 32.533 18.133 54.933 53.333 54.933 93.333 0 58.667-48 106.667-106.667 106.667s-106.667-48-106.667-106.667c0-40 22.4-75.2 54.933-93.333-68.8-21.867-118.933-86.4-118.933-162.667h-21.333v469.333h768v-469.333zM512 576h341.333v-42.667h-341.333v42.667zM512 469.333h341.333v-42.667h-341.333v42.667zM512 362.667h256v-42.667h-256v42.667z" />
<glyph unicode="&#x29;" glyph-name="alert-success" data-tags="Bosch-IC-alert-success" d="M512 21.333c-235.2 0-426.667 191.467-426.667 426.667s191.467 426.667 426.667 426.667 426.667-191.467 426.667-426.667-191.467-426.667-426.667-426.667zM512 832c-211.733 0-384-172.267-384-384s172.267-384 384-384 384 172.267 384 384-172.267 384-384 384zM689.067 590.933l-241.067-240.533-113.067 112.533-29.867-29.867 142.933-143.467 270.933 271.467z" />
<glyph unicode="&#x2a;" glyph-name="arrow-left-down" data-tags="Bosch-IC-arrow-left-down" d="M846.933 753.067l-29.867 29.867-603.733-603.2v209.6h-42.667v-282.667h272v42.667h-198.933z" />
<glyph unicode="&#x2b;" glyph-name="arrow-down" data-tags="Bosch-IC-arrow-down" d="M667.733 249.6l-134.4-133.867v758.933h-42.667v-758.933l-134.4 133.867-29.867-29.867 185.6-186.133 185.6 186.133z" />
<glyph unicode="&#x2c;" glyph-name="arrow-right-down-frame" data-tags="Bosch-IC-arrow-right-down-frame" d="M618.667 371.733l-241.067 240.533-29.867-29.867 240.533-241.067h-99.2v-42.667h172.267v172.267h-42.667zM813.867 749.867c-166.4 166.4-436.8 166.4-603.2 0s-166.4-436.8 0-603.2c82.667-83.733 192-125.333 301.333-125.333s218.667 41.6 301.867 124.8c166.4 166.4 166.4 437.333 0 603.733zM783.467 176.533c-149.867-149.867-393.6-149.867-542.933 0s-149.867 393.067 0 542.933c74.667 74.667 173.333 112.533 271.467 112.533s196.8-37.333 271.467-112.533c149.867-149.867 149.867-393.067 0-542.933z" />
<glyph unicode="&#x2d;" glyph-name="arrow-right-frame-(1)" data-tags="Bosch-IC-arrow-right-frame (1)" d="M561.067 539.733l69.867-70.4h-332.267v-42.667h332.267l-69.867-70.4 29.867-29.867 122.133 121.6-122.133 121.6zM512 874.667c-235.2 0-426.667-191.467-426.667-426.667s191.467-426.667 426.667-426.667 426.667 191.467 426.667 426.667-191.467 426.667-426.667 426.667zM512 64c-211.733 0-384 172.267-384 384s172.267 384 384 384 384-172.267 384-384-172.267-384-384-384z" />
<glyph unicode="&#x2e;" glyph-name="arrow-right-down" data-tags="Bosch-IC-arrow-right-down" d="M810.667 378.667v-198.933l-603.733 603.2-29.867-29.867 603.2-603.733h-209.6v-42.667h282.667v272z" />
<glyph unicode="&#x2f;" glyph-name="abort-frame" data-tags="Bosch-IC-abort-frame" d="M689.067 654.933l-177.067-176.533-177.067 176.533-29.867-29.867 176.533-177.067-176.533-177.067 29.867-29.867 177.067 176.533 177.067-176.533 29.867 29.867-176.533 177.067 176.533 177.067zM512 874.667c-235.2 0-426.667-191.467-426.667-426.667s191.467-426.667 426.667-426.667 426.667 191.467 426.667 426.667-191.467 426.667-426.667 426.667zM512 64c-211.733 0-384 172.267-384 384s172.267 384 384 384 384-172.267 384-384-172.267-384-384-384z" />
<glyph unicode="&#x30;" glyph-name="alert-error-filled" data-tags="Bosch-IC-alert-error-filled" d="M691.733 874.667h-359.467l-246.933-246.933v-358.933l246.933-247.467h358.933l246.933 246.933v359.467l-246.4 246.933zM484.8 661.333h54.4v-132.8l-14.4-163.733h-26.133l-14.4 163.733 0.533 132.8zM512 234.667c-21.333 0-37.867 16.533-37.867 37.867s16.533 37.867 37.867 37.867c20.8 0 37.867-17.067 37.867-37.867s-17.067-37.867-37.867-37.867z" />
<glyph unicode="&#x31;" glyph-name="alert-error" data-tags="Bosch-IC-alert-error" d="M691.733 21.333h-359.467l-246.933 246.933v359.467l246.933 246.933h358.933l247.467-246.933v-358.933l-246.933-247.467zM350.4 64h323.733l222.4 222.4v323.2l-222.933 222.4h-323.2l-222.4-222.4v-323.733l222.4-221.867zM549.867 272.533c0-20.8-17.067-37.867-37.867-37.867-21.333 0-37.867 16.533-37.867 37.867s16.533 37.867 37.867 37.867c20.8 0 37.867-17.067 37.867-37.867zM484.8 528.533v132.8h54.4v-132.8l-14.4-163.733h-26.133l-13.867 163.733z" />
<glyph unicode="&#x32;" glyph-name="alert-success-filled" data-tags="Bosch-IC-alert-success-filled" d="M512 874.667c-235.2 0-426.667-191.467-426.667-426.667s191.467-426.667 426.667-426.667 426.667 191.467 426.667 426.667-191.467 426.667-426.667 426.667zM448 289.6l-142.933 143.467 30.4 30.4 112.533-113.067 241.067 241.067 30.4-30.4-271.467-271.467z" />
<glyph unicode="&#x33;" glyph-name="alert-warning-filled" data-tags="Bosch-IC-alert-warning-filled" d="M512 876.267l-425.6-769.6h851.2l-425.6 769.6zM484.8 618.667h54.4v-132.8l-14.4-163.733h-26.133l-14.4 163.733 0.533 132.8zM512 192c-21.333 0-37.867 16.533-37.867 37.867s16.533 37.867 37.867 37.867c20.8 0 37.867-17.067 37.867-37.867s-17.067-37.867-37.867-37.867z" />
<glyph unicode="&#x34;" glyph-name="welcome" data-tags="Bosch-IC-welcome" d="M874.667 640c-27.733 0-51.2-17.6-60.267-42.667h-153.067c0 35.2-28.8 64-64 64h-171.733c-12.8-0.533-29.333-5.867-33.067-7.467l-185.067-51.2c-10.133 21.867-32.533 37.333-58.133 37.333-35.2 0-64-28.8-64-64v-192c0-35.2 28.8-64 64-64 27.733 0 51.2 17.6 60.267 42.667h39.467l162.667-116.8c10.667-7.467 22.933-11.2 36.267-11.2 5.867 0 11.733 1.067 18.133 2.667l156.267 42.667c13.333 4.267 24.533 12.267 32.533 23.467l117.867 59.2h41.6c9.067-25.067 32.533-42.667 60.267-42.667 35.2 0 64 28.8 64 64v192c0 35.2-28.8 64-64 64zM149.333 362.667c-11.733 0-21.333 9.6-21.333 21.333v192c0 11.733 9.6 21.333 21.333 21.333s21.333-9.6 21.333-21.333v-192c0-11.733-9.6-21.333-21.333-21.333zM610.133 321.067l-156.267-43.2c-5.867-1.6-12.8-0.533-17.6 2.667l-173.333 124.8h-49.6v154.667l192.533 53.867c5.333 2.133 16 4.8 21.333 5.333h170.133c11.733 0 21.333-9.6 21.333-21.333h-21.333c-10.667 0-22.933-2.667-26.133-3.733l-51.733-10.667c-4.267-1.067-12.8-3.2-17.6-5.333-4.267-2.133-11.2-6.933-16-10.667l-120-90.667c-15.467-12.267-24.533-30.4-24.533-50.133 0-35.2 28.8-64 64-64 9.6 0 19.2 2.133 28.267 6.4l116.267 72 72.533-90.667c0.533-1.067 1.6-4.267 1.6-9.067 0-9.6-5.333-17.067-13.867-20.267zM763.2 405.333l-98.133-49.067c-2.133 10.667-6.4 17.067-7.467 18.667l-58.667 73.067h41.067v42.667h-91.2l-134.933-83.733c-2.667-1.067-5.333-1.6-8.533-1.6-11.733 0-21.333 9.6-21.333 21.333 0 6.4 3.2 12.8 8 16.533l119.467 90.133c2.667 2.133 6.933 5.333 9.067 6.4 1.6 0.533 5.333 1.6 8 2.133l51.733 10.667h1.067c3.2 0.533 11.733 2.667 16 2.667h213.333v-149.333l-47.467-0.533zM896 384c0-11.733-9.6-21.333-21.333-21.333s-21.333 9.6-21.333 21.333v192c0 11.733 9.6 21.333 21.333 21.333s21.333-9.6 21.333-21.333v-192z" />
<glyph unicode="&#x35;" glyph-name="watch-on" data-tags="Bosch-IC-watch-on" d="M512 192c-265.6 0-397.333 235.733-402.667 245.867l-5.333 10.133 5.333 10.133c5.333 10.133 137.067 245.867 402.667 245.867s397.333-235.733 402.667-245.867l5.333-10.133-5.333-10.133c-5.333-10.133-137.067-245.867-402.667-245.867zM153.067 448c27.733-43.733 149.333-213.333 358.933-213.333 210.667 0 331.2 169.6 358.933 213.333-27.733 43.733-149.333 213.333-358.933 213.333-210.667 0-331.2-169.6-358.933-213.333zM512 298.667c-82.133 0-149.333 67.2-149.333 149.333s67.2 149.333 149.333 149.333 149.333-67.2 149.333-149.333-67.2-149.333-149.333-149.333zM512 554.667c-58.667 0-106.667-48-106.667-106.667s48-106.667 106.667-106.667 106.667 48 106.667 106.667-48 106.667-106.667 106.667z" />
<glyph unicode="&#x36;" glyph-name="watch-off" data-tags="Bosch-IC-watch-off" d="M406.4 433.067c-0.533 4.8-1.067 9.6-1.067 14.933 0 58.667 48 106.667 106.667 106.667 5.333 0 10.133-0.533 14.933-1.067l35.2 35.2c-15.467 5.867-32.533 8.533-50.133 8.533-82.133 0-149.333-67.2-149.333-149.333 0-17.6 3.2-34.667 8.533-50.133l35.2 35.2zM617.6 462.933c0.533-4.8 1.067-10.133 1.067-14.933 0-58.667-48-106.667-106.667-106.667-5.333 0-10.133 0.533-14.933 1.067l-35.2-35.2c15.467-5.867 32.533-8.533 50.133-8.533 82.133 0 149.333 67.2 149.333 149.333 0 17.6-3.2 34.667-8.533 50.133l-35.2-35.2zM176.543 142.993l639.973 639.973 30.17-30.17-639.973-639.973-30.17 30.17zM914.667 458.133c-2.133 3.733-49.067 89.067-143.467 158.4l-30.4-30.4c71.467-51.2 115.2-113.6 130.667-138.133-27.733-43.733-148.8-213.333-358.933-213.333-36.8 0-72.533 5.333-107.2 15.467l-32.533-32.533-0.533-2.133c44.8-16 92.267-24 140.267-24 265.6 0 397.333 235.733 402.667 245.867l5.333 10.133-5.867 10.667zM252.8 279.467l30.4 30.4c-71.467 50.667-115.2 113.6-130.667 138.133 27.733 43.733 148.8 213.333 358.933 213.333 36.8 0 72.533-5.333 107.2-15.467l32.533 32.533 0.533 2.133c-44.267 15.467-91.733 23.467-139.733 23.467-265.6 0-397.333-235.733-402.667-245.867l-5.333-10.133 5.333-10.133c2.133-3.733 49.067-89.067 143.467-158.4z" />
<glyph unicode="&#x37;" glyph-name="summary" data-tags="Bosch-IC-summary" d="M810.667 21.333h-597.333v853.333h597.333v-853.333zM256 64h512v768h-512v-768zM298.667 554.667h341.333v-42.667h-341.333v42.667zM298.667 661.333h341.333v-42.667h-341.333v42.667zM298.667 448h341.333v-42.667h-341.333v42.667zM298.667 341.333h213.333v-42.667h-213.333v42.667z" />
<glyph unicode="&#x38;" glyph-name="locator" data-tags="Bosch-IC-locator" d="M512 469.333c-70.4 0-128 57.6-128 128s57.6 128 128 128 128-57.6 128-128-57.6-128-128-128zM512 682.667c-46.933 0-85.333-38.4-85.333-85.333s38.4-85.333 85.333-85.333 85.333 38.4 85.333 85.333-38.4 85.333-85.333 85.333zM512 21.867l-18.133 30.933c-1.6 3.2-176 298.667-213.333 362.667-29.333 46.933-45.867 113.067-45.867 181.867 0 153.067 124.267 277.333 277.333 277.333s277.333-124.267 277.333-277.333c0-68.8-16.533-134.933-45.867-181.867-37.333-64-211.2-359.467-213.333-362.667l-18.133-30.933zM512 832c-129.6 0-234.667-105.067-234.667-234.667 0-60.267 14.933-120 39.467-159.467l0.533-0.533c29.867-50.667 148.8-253.333 194.667-331.2 45.867 78.4 165.333 280.533 194.667 331.2l0.533 0.533c24.533 39.467 39.467 99.2 39.467 159.467 0 129.6-105.067 234.667-234.667 234.667z" />
<glyph unicode="&#x39;" glyph-name="start-play-frame" data-tags="Bosch-IC-start-play-frame" d="M512 21.333c-235.2 0-426.667 191.467-426.667 426.667s191.467 426.667 426.667 426.667 426.667-191.467 426.667-426.667-191.467-426.667-426.667-426.667zM512 832c-211.733 0-384-172.267-384-384s172.267-384 384-384 384 172.267 384 384-172.267 384-384 384zM402.667 254.933v386.133l303.467-193.067-303.467-193.067zM450.667 553.6v-211.2l165.867 105.6-165.867 105.6z" />
<glyph unicode="&#x3a;" glyph-name="arrow-right-up-frame" data-tags="Bosch-IC-arrow-right-up-frame" d="M489.067 554.667h99.2l-240.533-241.067 29.867-29.867 241.067 240.533v-99.2h42.667v172.267h-172.267zM813.867 749.867c-166.4 166.4-436.8 166.4-603.2 0s-166.4-436.8 0-603.2c82.667-83.733 192-125.333 301.333-125.333s218.667 41.6 301.867 124.8c166.4 166.4 166.4 437.333 0 603.733zM783.467 176.533c-74.667-74.667-173.333-112.533-271.467-112.533s-196.8 37.333-271.467 112.533c-149.867 149.867-149.867 393.067 0 542.933s393.6 149.867 542.933 0c149.867-149.867 149.867-393.067 0-542.933z" />
<glyph unicode="&#x3b;" glyph-name="arrow-right-frame" data-tags="Bosch-IC-arrow-right-frame" d="M561.067 539.733l69.867-70.4h-332.267v-42.667h332.267l-69.867-70.4 29.867-29.867 122.133 121.6-122.133 121.6zM512 874.667c-235.2 0-426.667-191.467-426.667-426.667s191.467-426.667 426.667-426.667 426.667 191.467 426.667 426.667-191.467 426.667-426.667 426.667zM512 64c-211.733 0-384 172.267-384 384s172.267 384 384 384 384-172.267 384-384-172.267-384-384-384z" />
<glyph unicode="&#x3c;" glyph-name="arrow-left-up" data-tags="Bosch-IC-arrow-left-up" d="M846.933 142.933l-603.2 603.733h209.6v42.667h-282.667v-272h42.667v198.933l603.733-603.2z" />
<glyph unicode="&#x3d;" glyph-name="alert-warning" data-tags="Bosch-IC-alert-warning" d="M937.6 106.667h-851.2l425.6 769.6 425.6-769.6zM158.933 149.333h706.133l-353.067 638.4-353.067-638.4zM549.867 229.867c0-20.8-17.067-37.867-37.867-37.867-21.333 0-37.867 16.533-37.867 37.867s16.533 37.867 37.867 37.867c20.8 0 37.867-17.067 37.867-37.867zM484.8 485.867v132.8h54.4v-132.8l-14.4-163.733h-26.133l-13.867 163.733z" />
<glyph unicode="&#x3e;" glyph-name="arrow-left" data-tags="Bosch-IC-arrow-left" d="M938.667 469.333h-758.933l133.867 134.4-29.867 29.867-186.133-185.6 186.133-185.6 29.867 29.867-133.867 134.4h758.933z" />
<glyph unicode="&#x3f;" glyph-name="analysis" data-tags="Bosch-IC-analysis" d="M938.667 234.667v554.667h-853.333v-554.667h341.333v-85.333h-85.333v-42.667h341.333v42.667h-85.333v85.333h341.333zM128 746.667h768v-469.333h-768v469.333zM554.667 149.333h-85.333v85.333h85.333v-85.333zM617.6 582.933c-2.667 8.533-11.2 14.4-20.267 14.4s-17.6-5.867-20.267-14.4l-22.4-67.733-43.733 131.2c-2.667 9.067-11.2 14.933-20.267 14.933s-17.6-5.867-20.267-14.4l-65.067-195.733-22.4 67.2c-2.667 9.067-11.2 14.933-20.267 14.933h-64v-42.667h48.533l37.867-113.6c2.667-8.533 11.2-14.4 20.267-14.4s17.6 5.867 20.267 14.4l65.067 195.733 43.733-131.2c2.667-8.533 11.2-14.4 20.267-14.4s17.6 5.867 20.267 14.4l22.4 67.2 1.067-3.2c2.667-8.533 11.2-14.4 20.267-14.4h106.667v42.667h-91.2l-16.533 49.067z" />
<glyph unicode="&#x40;" glyph-name="car" data-tags="Bosch-IC-car" d="M362.667 320h-90.667c-32.533 0-58.667 26.133-58.667 58.667v10.667c0 32.533 26.133 58.667 58.667 58.667h2.667c0 0 65.6-8 90.667-10.667 34.667-4.267 56-26.667 56-58.667 0-32.533-26.133-58.667-58.667-58.667zM270.933 405.333c-8.533-0.533-14.933-7.467-14.933-16v-10.667c0-9.067 6.933-16 16-16h90.667c9.067 0 16 6.933 16 16 0 5.333 0 13.867-18.667 16-22.4 2.667-78.933 9.6-89.067 10.667zM864 106.667h-92.267l-1.6 0.533c-10.667 1.6-44.8 14.933-49.067 106.133h-417.6c-2.133-37.867-11.733-100.267-49.067-106.133l-1.6-0.533h-92.8c-48 0-53.333 89.6-53.333 128v149.333c0 32.533 13.333 64.533 26.133 87.467-29.867 7.467-47.467 35.2-47.467 61.867 0 44.267 36.267 60.8 55.467 64h78.933c9.6 26.133 32.533 81.067 61.867 119.467 23.467 33.6 69.867 56 138.667 66.667 45.867 6.933 85.867 5.867 91.733 5.867s46.4 1.067 92.267-6.4c68.267-10.667 114.667-33.067 138.133-66.667 29.333-37.867 52.267-93.333 61.867-119.467h78.933c19.2-2.667 55.467-19.733 55.467-64 0-26.667-17.6-54.4-47.467-61.867 12.8-22.933 26.133-54.4 26.133-87.467v-149.333c0-37.867-5.333-127.467-53.333-127.467zM779.2 149.333h81.6c5.333 8 13.867 37.333 13.867 85.333v149.333c0 37.867-27.2 80-37.867 93.333l-27.733 34.667h65.6c15.467 0 21.333 12.8 21.333 21.333 0 15.467-11.733 19.733-18.133 21.333h-104l-4.8 14.4c0 0.533-26.133 77.333-60.8 121.6l-0.533 1.067c-34.133 49.067-152.533 56-195.2 54.933h-1.067c-42.667 1.067-161.067-5.867-195.2-54.933l-0.533-1.067c-34.667-44.8-60.267-121.067-60.8-121.6l-4.8-14.4h-104c-5.867-1.067-18.133-5.867-18.133-21.333 0-8.533 5.867-21.333 21.333-21.333h65.6l-27.733-34.667c0-0.533-37.867-48.533-37.867-93.333v-149.333c0-48 8.533-77.333 13.867-85.333h81.6c4.267 4.8 16.533 24.533 16.533 85.333v21.333h501.333v-21.333c0-60.8 12.267-80.533 16.533-85.333zM752 320h-90.667c-32.533 0-58.667 26.133-58.667 58.667 0 32 21.333 54.4 56 58.667 25.067 2.667 90.667 10.667 90.667 10.667h2.667c32.533 0 58.667-26.133 58.667-58.667v-10.667c0-32.533-26.133-58.667-58.667-58.667zM753.067 405.333c-10.133-1.067-66.667-8-89.067-10.667-18.667-2.133-18.667-10.667-18.667-16 0-9.067 6.933-16 16-16h90.667c9.067 0 16 6.933 16 16v10.667c0 8.533-6.4 15.467-14.933 16z" />
<glyph unicode="&#x41;" glyph-name="zoom-out" data-tags="Bosch-IC-zoom-out" d="M234.667 618.667h256v-42.667h-256v42.667zM910.933 164.267l-302.933 303.467c20.8 38.933 32 82.667 32 129.6 0 153.067-124.267 277.333-277.333 277.333s-277.333-124.267-277.333-277.333 124.267-277.333 277.333-277.333c46.933 0 90.667 11.733 129.6 32l303.467-303.467c18.667-18.667 42.133-27.733 65.067-27.733 20.8 0 40.533 7.467 55.467 22.4 32 32 29.867 86.4-5.333 121.067zM362.667 362.667c-129.6 0-234.667 105.067-234.667 234.667s105.067 234.667 234.667 234.667 234.667-105.067 234.667-234.667-105.067-234.667-234.667-234.667zM886.4 73.6c-9.6-9.6-20.8-10.667-28.267-10.133-11.733 1.067-23.467 6.4-32 15.467l-296.533 296.533c20.8 15.467 39.467 34.133 54.933 54.933l296.533-296.533c8.533-8.533 14.4-20.267 15.467-32 0-7.467-1.067-18.667-10.133-28.267z" />
<glyph unicode="&#x42;" glyph-name="zoom-in" data-tags="Bosch-IC-zoom-in" d="M384 725.333h-42.667v-106.667h-106.667v-42.667h106.667v-106.667h42.667v106.667h106.667v42.667h-106.667zM910.933 164.267l-302.933 303.467c20.8 38.933 32 82.667 32 129.6 0 153.067-124.267 277.333-277.333 277.333s-277.333-124.267-277.333-277.333 124.267-277.333 277.333-277.333c46.933 0 90.667 11.733 129.6 32l303.467-303.467c18.667-18.667 42.133-27.733 65.067-27.733 20.8 0 40.533 7.467 55.467 22.4 32 32 29.867 86.4-5.333 121.067zM362.667 362.667c-129.6 0-234.667 105.067-234.667 234.667s105.067 234.667 234.667 234.667 234.667-105.067 234.667-234.667-105.067-234.667-234.667-234.667zM886.4 73.6c-9.6-9.6-20.8-10.667-28.267-10.133-11.733 1.067-23.467 6.4-32 15.467l-296.533 296.533c20.8 15.467 39.467 34.133 54.933 54.933l296.533-296.533c8.533-8.533 14.4-20.267 15.467-32 0-7.467-1.067-18.667-10.133-28.267z" />
<glyph unicode="&#x43;" glyph-name="up-down" data-tags="Bosch-IC-up-down" d="M804.267 612.267l-164.267 164.8-164.267-164.8 29.867-29.867 113.067 112.533v-289.6h42.667v289.6l113.067-112.533zM405.333 201.067v289.6h-42.667v-289.6l-113.067 112.533-29.867-29.867 164.267-164.8 164.267 164.8-29.867 29.867z" />
<glyph unicode="&#x44;" glyph-name="down" data-tags="Bosch-IC-down" d="M512 246.933l-334.933 335.467 29.867 29.867 305.067-304.533 305.067 304.533 29.867-29.867z" />
<glyph unicode="&#x45;" glyph-name="wishlist" data-tags="Bosch-IC-wishlist" d="M746.667 106.667c-3.2 0-5.867 0.533-9.067 2.133l-225.6 102.4-225.6-102.4c-6.933-3.2-15.467-2.133-21.867 2.667s-9.6 12.8-8 20.267l41.067 245.333-184.533 184c-5.867 5.867-7.467 13.867-5.333 21.333 2.667 7.467 9.067 13.333 17.067 14.4l245.867 41.067 123.2 225.6c3.733 6.933 10.667 11.2 18.667 11.2v0c8 0 14.933-4.267 18.667-11.2l123.2-225.6 245.867-41.067c8-1.067 14.4-6.933 17.067-14.4s0.533-16-5.333-21.333l-184-184 41.067-245.333c1.067-8-1.6-15.467-8-20.267-5.333-3.2-9.6-4.8-14.4-4.8zM512 256c3.2 0 5.867-0.533 9.067-2.133l198.4-90.133-36.267 216.533c-1.067 6.933 1.067 13.867 5.867 18.667l162.667 162.667-214.933 35.733c-6.4 1.067-12.267 5.333-15.467 10.667l-109.333 200.533-109.333-200c-3.2-5.867-8.533-9.6-15.467-10.667l-214.933-35.733 162.667-162.667c4.8-4.8 6.933-11.733 5.867-18.667l-36.267-216.533 198.4 90.133c3.2 1.067 5.867 1.6 9.067 1.6z" />
<glyph unicode="&#x46;" glyph-name="shoppingcart-switch" data-tags="Bosch-IC-shoppingcart-switch" d="M860.267 745.6c-21.867 7.467-48.533 4.267-71.467-7.467-21.333-11.2-35.733-28.8-41.067-49.6l-100.8-368.533h-412.267c-18.667 0-35.733 12.8-41.067 30.933l-64 214.4c-1.067 3.2-1.6 6.933-1.6 10.667 0 23.467 19.2 42.667 42.667 42.667h149.333v42.667h-149.333c-46.933 0-85.333-38.4-85.333-85.333 0-7.467 1.067-14.933 2.667-21.867l64.533-214.933c10.667-36.267 44.267-61.867 82.133-61.867h400.533l-12.267-44.267c-32-6.4-57.6-30.933-65.6-62.4h-218.667c-9.6 36.8-42.667 64-82.667 64-46.933 0-85.333-38.4-85.333-85.333s38.4-85.333 85.333-85.333c39.467 0 73.067 27.2 82.667 64h219.2c9.6-36.8 42.667-64 82.667-64 46.933 0 85.333 38.4 85.333 85.333 0 37.867-24.533 69.867-58.667 81.067l121.6 446.933c2.667 9.067 9.6 17.6 20.267 23.467 12.267 6.4 26.667 8.533 37.867 4.8l64-21.333 13.333 40.533-64 20.8zM256 106.667c-23.467 0-42.667 19.2-42.667 42.667s19.2 42.667 42.667 42.667 42.667-19.2 42.667-42.667-19.2-42.667-42.667-42.667zM682.667 149.333c0-23.467-19.2-42.667-42.667-42.667s-42.667 19.2-42.667 42.667 19.2 42.667 42.667 42.667 42.667-19.2 42.667-42.667zM554.667 758.933v-161.6h42.667v161.6l49.067-48.533 29.867 29.867-100.267 100.8-100.267-100.8 29.867-29.867zM526.933 518.4l-29.867 29.867-49.067-48.533v161.6h-42.667v-161.6l-49.067 48.533-29.867-29.867 100.267-100.8z" />
<glyph unicode="&#x47;" glyph-name="shoppingcart" data-tags="Bosch-IC-shoppingcart" d="M860.267 745.6c-21.867 7.467-48.533 4.267-71.467-7.467-21.333-11.2-35.733-28.8-41.067-49.6l-7.467-27.2h-569.6c-46.933 0-85.333-38.4-85.333-85.333 0-7.467 1.067-14.933 2.667-21.867l64.533-214.933c10.667-36.267 44.267-61.867 82.133-61.867h400.533l-12.267-44.267c-32-6.4-57.6-30.933-65.6-62.4h-218.667c-9.6 36.8-42.667 64-82.667 64-46.933 0-85.333-38.4-85.333-85.333s38.4-85.333 85.333-85.333c39.467 0 73.067 27.2 82.667 64h219.2c9.6-36.8 42.667-64 82.667-64 46.933 0 85.333 38.4 85.333 85.333 0 37.867-24.533 69.867-58.667 81.067l121.6 446.933c2.667 9.067 9.6 17.6 20.267 23.467 12.267 6.4 26.667 8.533 37.867 4.8l64-21.333 13.333 40.533-64 20.8zM256 106.667c-23.467 0-42.667 19.2-42.667 42.667s19.2 42.667 42.667 42.667 42.667-19.2 42.667-42.667-19.2-42.667-42.667-42.667zM234.667 320c-18.667 0-35.733 12.8-41.067 30.933l-64 214.4c-1.067 3.2-1.6 6.933-1.6 10.667 0 23.467 19.2 42.667 42.667 42.667h557.867l-81.6-298.667h-412.267zM682.667 149.333c0-23.467-19.2-42.667-42.667-42.667s-42.667 19.2-42.667 42.667 19.2 42.667 42.667 42.667 42.667-19.2 42.667-42.667z" />
<glyph unicode="&#x48;" glyph-name="notification" data-tags="Bosch-IC-notification" d="M921.067 149.333l-153.067 178.667v269.333c0 141.333-114.667 256-256 256s-256-114.667-256-256v-269.333l-153.067-178.667h282.667c10.133-60.267 62.933-106.667 126.4-106.667s115.733 46.4 126.4 106.667h282.667zM298.667 312v285.333c0 117.867 95.467 213.333 213.333 213.333s213.333-95.467 213.333-213.333v-285.333l102.933-120h-632.533l102.933 120zM512 85.333c-39.467 0-73.067 27.2-82.667 64h164.8c-9.067-36.8-42.667-64-82.133-64z" />
<glyph unicode="&#x49;" glyph-name="my-brand-frame" data-tags="Bosch-IC-my-brand-frame" d="M512 874.667c-235.2 0-426.667-191.467-426.667-426.667s191.467-426.667 426.667-426.667 426.667 191.467 426.667 426.667-191.467 426.667-426.667 426.667zM320 115.733c3.733 109.867 80 182.933 192 182.933s187.733-73.067 192-182.933c-56.533-32.533-122.133-51.733-192-51.733s-135.467 18.667-192 51.733zM405.333 469.333c0 58.667 48 106.667 106.667 106.667s106.667-48 106.667-106.667-48-106.667-106.667-106.667-106.667 48-106.667 106.667zM744.533 142.4c-12.8 97.6-76.8 169.067-169.067 191.467 50.667 24 86.4 75.733 86.4 135.467 0 82.133-67.2 149.333-149.333 149.333s-149.867-67.2-149.867-149.333c0-59.733 35.2-111.467 86.4-135.467-92.8-22.4-156.8-93.867-169.067-191.467-92.267 70.4-152 181.333-152 305.6 0 211.733 172.267 384 384 384s384-172.267 384-384c0-124.267-59.733-235.2-151.467-305.6z" />
<glyph unicode="&#x4a;" glyph-name="shoppingcart-add" data-tags="Bosch-IC-shoppingcart-add" d="M789.333 277.333h-42.667v-64h-64v-42.667h64v-64h42.667v64h64v42.667h-64zM768 362.667c-93.867 0-170.667-76.8-170.667-170.667s76.8-170.667 170.667-170.667 170.667 76.8 170.667 170.667-76.8 170.667-170.667 170.667zM768 64c-70.4 0-128 57.6-128 128s57.6 128 128 128 128-57.6 128-128-57.6-128-128-128zM234.667 277.333h337.6c6.933 15.467 14.933 29.333 25.067 42.667h-362.667c-18.667 0-35.733 12.8-41.067 30.933l-64 214.4c-1.067 3.2-1.6 6.933-1.6 10.667 0 23.467 19.2 42.667 42.667 42.667h557.333l-67.2-242.133c15.467 9.067 32.533 16.533 50.133 21.333l77.867 279.467c2.667 9.067 9.6 17.6 20.267 23.467 12.267 6.4 26.667 8.533 37.867 4.8l64-21.333 13.333 40.533-64 21.333c-21.867 7.467-48.533 4.267-71.467-7.467-21.333-11.2-35.733-28.8-41.067-49.6l-7.467-27.2h-569.6c-46.933 0-85.333-38.4-85.333-85.333 0-7.467 1.067-14.933 2.667-21.867l64.533-214.933c10.667-36.8 44.267-62.4 82.133-62.4zM555.733 170.667h-217.067c-9.6 36.8-42.667 64-82.667 64-46.933 0-85.333-38.4-85.333-85.333s38.4-85.333 85.333-85.333c39.467 0 73.067 27.2 82.667 64h226.133c-3.733 10.133-7.467 26.133-9.067 42.667zM256 106.667c-23.467 0-42.667 19.2-42.667 42.667s19.2 42.667 42.667 42.667 42.667-19.2 42.667-42.667-19.2-42.667-42.667-42.667z" />
<glyph unicode="&#x4b;" glyph-name="calendar" data-tags="Bosch-IC-calendar" d="M725.333 789.333v64h-42.667v-64h-341.333v64h-42.667v-64h-213.333v-682.667h853.333v682.667h-213.333zM896 149.333h-768v426.667h768v-426.667zM128 618.667v128h170.667v-37.333h42.667v37.333h341.333v-37.333h42.667v37.333h170.667v-128h-768z" />
<glyph unicode="&#x4c;" glyph-name="customerservice" data-tags="Bosch-IC-customerservice" d="M829.333 595.2c-41.6 140.267-170.133 236.8-317.333 236.8s-275.733-96.533-317.333-236.8c-37.867-8.533-66.667-42.667-66.667-83.2v-149.333c0-46.933 38.4-85.333 85.333-85.333s85.333 38.4 85.333 85.333v149.333c0 37.867-25.067 70.4-59.733 81.6 38.933 116.267 148.267 195.733 273.067 195.733s234.133-79.467 273.067-195.733c-34.667-10.667-59.733-43.2-59.733-81.6v-149.333c0-39.467 27.2-73.067 64-82.667v-66.667c0-23.467-19.2-42.667-42.667-42.667h-3.733c-9.067 25.067-32.533 42.667-60.267 42.667h-85.333c-35.2 0-64-28.8-64-64s28.8-64 64-64h85.333c27.733 0 51.2 17.6 60.267 42.667h3.733c46.933 0 85.333 38.4 85.333 85.333v66.667c36.8 9.6 64 42.667 64 82.667v149.333c0 40.533-28.8 74.667-66.667 83.2zM256 512v-149.333c0-23.467-19.2-42.667-42.667-42.667s-42.667 19.2-42.667 42.667v149.333c0 23.467 19.2 42.667 42.667 42.667s42.667-19.2 42.667-42.667zM682.667 128h-85.333c-11.733 0-21.333 9.6-21.333 21.333s9.6 21.333 21.333 21.333h85.333c11.733 0 21.333-9.6 21.333-21.333s-9.6-21.333-21.333-21.333zM853.333 362.667c0-23.467-19.2-42.667-42.667-42.667s-42.667 19.2-42.667 42.667v149.333c0 23.467 19.2 42.667 42.667 42.667s42.667-19.2 42.667-42.667v-149.333z" />
<glyph unicode="&#x4d;" glyph-name="livechat" data-tags="Bosch-IC-livechat" d="M810.667 32l-147.2 61.333c-48-19.2-99.2-29.333-151.467-29.333-223.467 0-405.333 181.867-405.333 405.333s181.867 405.333 405.333 405.333 405.333-181.867 405.333-405.333c0-101.867-37.867-198.933-106.667-274.133v-163.2zM663.467 139.733l104.533-43.733v116.267l5.867 6.4c65.067 67.733 100.8 156.8 100.8 250.667 0 200-162.667 362.667-362.667 362.667s-362.667-162.667-362.667-362.667 162.667-362.667 362.667-362.667c49.6 0 97.6 9.6 142.933 29.333l8.533 3.733zM554.667 469.333c0-23.564-19.103-42.667-42.667-42.667s-42.667 19.103-42.667 42.667c0 23.564 19.103 42.667 42.667 42.667s42.667-19.103 42.667-42.667zM405.333 469.333c0-23.564-19.103-42.667-42.667-42.667s-42.667 19.103-42.667 42.667c0 23.564 19.103 42.667 42.667 42.667s42.667-19.103 42.667-42.667zM704 469.333c0-23.564-19.103-42.667-42.667-42.667s-42.667 19.103-42.667 42.667c0 23.564 19.103 42.667 42.667 42.667s42.667-19.103 42.667-42.667z" />
<glyph unicode="&#x4e;" glyph-name="newsletter" data-tags="Bosch-IC-newsletter" d="M170.667 725.333v-128h42.667v65.6l341.333-241.067 341.333 241.067v-406.933c0-23.467-19.2-42.667-42.667-42.667h-597.333c-23.467 0-42.667 19.2-42.667 42.667v42.667h-42.667v-42.667c0-46.933 38.4-85.333 85.333-85.333h597.333c46.933 0 85.333 38.4 85.333 85.333v469.333h-768zM259.2 682.667h590.933l-295.467-208.533-295.467 208.533zM85.333 554.667h170.667v-42.667h-170.667v42.667zM85.333 384h170.667v-42.667h-170.667v42.667zM128 469.333h128v-42.667h-128v42.667z" />
<glyph unicode="&#x4f;" glyph-name="calendar-add" data-tags="Bosch-IC-calendar-add" d="M725.333 789.333v64h-42.667v-64h-341.333v64h-42.667v-64h-213.333v-682.667h486.933c-5.867 13.333-10.667 27.733-13.333 42.667h-430.933v426.667h768v-213.333c16-12.267 30.4-26.667 42.667-42.667v469.333h-213.333zM128 618.667v128h170.667v-37.333h42.667v37.333h341.333v-37.333h42.667v37.333h170.667v-128h-768zM768 362.667c-93.867 0-170.667-76.8-170.667-170.667s76.8-170.667 170.667-170.667 170.667 76.8 170.667 170.667-76.8 170.667-170.667 170.667zM768 64c-70.4 0-128 57.6-128 128s57.6 128 128 128 128-57.6 128-128-57.6-128-128-128zM789.333 277.333h-42.667v-64h-64v-42.667h64v-64h42.667v64h64v42.667h-64z" />
<glyph unicode="&#x50;" glyph-name="document-plain-add" data-tags="Bosch-IC-document-plain-add" d="M789.333 277.333h-42.667v-64h-64v-42.667h64v-64h42.667v64h64v42.667h-64zM768 362.667c-93.867 0-170.667-76.8-170.667-170.667s76.8-170.667 170.667-170.667 170.667 76.8 170.667 170.667-76.8 170.667-170.667 170.667zM768 64c-70.4 0-128 57.6-128 128s57.6 128 128 128 128-57.6 128-128-57.6-128-128-128zM597.333 64h-341.333v768h362.667v-170.667h149.333v-256c14.4 0 28.8-1.6 42.667-4.267v289.6l-161.067 184h-436.267v-853.333h426.667c-16 12.267-30.4 26.667-42.667 42.667zM661.333 796.8l81.067-92.8h-81.067v92.8z" />
<glyph unicode="&#x51;" glyph-name="compare" data-tags="Bosch-IC-compare" d="M896 490.667v-213.333c0-23.467-19.2-42.667-42.667-42.667h-673.6l113.067 113.067-30.4 30.4-164.8-164.8 164.267-164.267 30.4 30.4-112.533 112.533h673.6c46.933 0 85.333 38.4 85.333 85.333v213.333h-42.667zM128 618.667c0 23.467 19.2 42.667 42.667 42.667h673.6l-113.067-113.067 30.4-30.4 164.8 164.8-164.267 164.267-30.4-30.4 112.533-112.533h-673.6c-46.933 0-85.333-38.4-85.333-85.333v-213.333h42.667v213.333z" />
<glyph unicode="&#x52;" glyph-name="configuration" data-tags="Bosch-IC-configuration" d="M778.667 106.667c-41.067 0-74.667 33.6-74.667 74.667s33.6 74.667 74.667 74.667 74.667-33.6 74.667-74.667-33.6-74.667-74.667-74.667zM778.667 213.333c-17.6 0-32-14.4-32-32s14.4-32 32-32 32 14.4 32 32-14.4 32-32 32zM778.667 21.333c-88 0-160 72-160 160 0 19.2 3.2 37.867 10.133 56l-313.6 313.067c-19.733-8-40.533-11.733-61.867-11.733-92.8 0-168 75.2-168 168 0 20.267 3.733 40.533 10.667 59.2l11.733 30.933 99.2-99.2c15.467-15.467 40-15.467 54.933 0s15.467 40 0 54.933l-98.667 99.733 30.933 11.733c19.2 6.933 38.933 10.667 59.2 10.667 92.8 0 168-75.2 168-168 0-21.333-3.733-42.133-11.733-61.867l313.6-313.6c17.6 6.4 36.267 10.133 56 10.133 88 0 160-72 160-160s-72.533-160-160.533-160zM324.267 602.133l355.733-355.733-6.933-13.867c-8-16-11.733-33.6-11.733-51.2 0-64.533 52.8-117.333 117.333-117.333s117.333 52.8 117.333 117.333-52.8 117.333-117.333 117.333c-18.133 0-35.2-3.733-51.2-11.733l-13.867-6.933-355.733 355.733 6.933 13.867c9.067 17.6 13.867 36.8 13.867 57.067 0 69.333-56 125.333-125.333 125.333-3.2 0-6.4 0-9.6-0.533l48.533-48.533c15.467-15.467 24-35.733 24-57.6s-8.533-42.133-24-57.6c-15.467-15.467-35.733-24-57.6-24s-42.133 8.533-57.6 24l-48.533 48.533c0-3.2-0.533-6.4-0.533-9.6 0-69.333 56-125.333 125.333-125.333 20.267 0 38.933 4.8 57.067 13.867l13.867 6.933z" />
<glyph unicode="&#x53;" glyph-name="delete" data-tags="Bosch-IC-delete" d="M810.667 661.333h-597.333v85.333h597.333v-85.333zM746.667 106.667c0-23.467-19.2-42.667-42.667-42.667h-384c-23.467 0-42.667 19.2-42.667 42.667v512h85.333v-298.667h42.667v298.667h85.333v-298.667h42.667v298.667h85.333v-298.667h42.667v298.667h85.333v-512zM426.667 832h170.667c23.467 0 42.667-19.2 42.667-42.667h-256c0 23.467 19.2 42.667 42.667 42.667zM853.333 789.333h-170.667c0 46.933-38.4 85.333-85.333 85.333h-170.667c-46.933 0-85.333-38.4-85.333-85.333h-170.667v-170.667h64v-512c0-46.933 38.4-85.333 85.333-85.333h384c46.933 0 85.333 38.4 85.333 85.333v512h64v170.667z" />
<glyph unicode="&#x54;" glyph-name="download-frame" data-tags="Bosch-IC-download-frame" d="M298.667 277.333h426.667v-42.667h-426.667v42.667zM633.6 497.067l-29.867 29.867-70.4-69.867v204.267h-42.667v-204.267l-70.4 69.867-29.867-29.867 121.6-122.133zM512 874.667c-235.2 0-426.667-191.467-426.667-426.667s191.467-426.667 426.667-426.667 426.667 191.467 426.667 426.667-191.467 426.667-426.667 426.667zM512 64c-211.733 0-384 172.267-384 384s172.267 384 384 384 384-172.267 384-384-172.267-384-384-384z" />
<glyph unicode="&#x55;" glyph-name="edit" data-tags="Bosch-IC-edit" d="M85.333 170.667h213.333v-42.667h-213.333v42.667zM910.933 705.6c-43.733 43.733-114.667 43.733-158.4 0l-366.933-366.933-52.267-210.667 210.667 52.8 366.933 366.933c43.733 43.2 43.733 114.667 0 157.867zM435.733 328l289.6 290.133 97.6-98.133-289.6-289.6-97.6 97.6zM417.067 286.4l74.667-74.667-99.733-25.067 25.067 99.733zM884.267 581.333l-30.933-30.933-97.6 98.133 30.4 30.4c27.2 24 68.8 22.933 94.4-3.2 26.667-26.133 27.733-67.2 3.733-94.4z" />
<glyph unicode="&#x56;" glyph-name="locator-spot" data-tags="Bosch-IC-locator-spot" d="M682.667 448c0-94.257-76.41-170.667-170.667-170.667s-170.667 76.41-170.667 170.667c0 94.257 76.41 170.667 170.667 170.667s170.667-76.41 170.667-170.667zM938.667 469.333h-85.867c-10.667 171.2-148.267 308.8-319.467 319.467v85.867h-42.667v-85.867c-171.2-10.667-308.8-148.267-319.467-319.467h-85.867v-42.667h85.867c10.667-171.2 148.267-308.8 319.467-319.467v-85.867h42.667v85.867c171.2 10.667 308.8 148.267 319.467 319.467h85.867v42.667zM512 149.333c-164.8 0-298.667 133.867-298.667 298.667s133.867 298.667 298.667 298.667 298.667-133.867 298.667-298.667-133.867-298.667-298.667-298.667z" />
<glyph unicode="&#x57;" glyph-name="logout" data-tags="Bosch-IC-logout" d="M240.533 176.533c-149.867 149.867-149.867 393.067 0 542.933s393.6 149.867 542.933 0l30.4 30.4c-166.4 166.4-436.8 166.4-603.2 0s-166.4-436.8 0-603.2c82.667-83.733 192-125.333 301.333-125.333s218.667 41.6 301.867 124.8l-30.4 30.4c-149.867-149.867-393.067-149.867-542.933 0zM761.6 283.733l164.8 164.267-164.8 164.267-29.867-29.867 112.533-113.067h-289.6v-42.667h289.6l-112.533-113.067z" />
<glyph unicode="&#x58;" glyph-name="payment" data-tags="Bosch-IC-payment" d="M852.8 725.333h-681.6c-47.467 0-85.867-38.4-85.867-85.867v-382.933c0-47.467 38.4-85.867 85.867-85.867h681.6c47.467 0 85.867 38.4 85.867 85.867v382.933c0 47.467-38.4 85.867-85.867 85.867zM171.2 682.667h681.6c24 0 43.2-19.2 43.2-43.2v-42.133h-768v42.133c0 24 19.2 43.2 43.2 43.2zM852.8 213.333h-681.6c-24 0-43.2 19.2-43.2 43.2v212.8h768v-212.8c0-24-19.2-43.2-43.2-43.2zM170.667 341.333h192v-42.667h-192v42.667z" />
<glyph unicode="&#x59;" glyph-name="document-pdf" data-tags="Bosch-IC-document-pdf" d="M170.667 479.467h53.867c28.8 0 45.333-15.467 45.333-41.067 0-24.533-16.533-38.933-44.267-38.933h-26.667v-46.4h-28.267v126.4zM222.4 420.267c12.8 0 19.733 6.4 19.733 18.667s-6.4 18.133-19.2 18.133h-24v-36.8h23.467zM291.2 479.467h46.933c40 0 62.933-22.933 62.933-62.933 0-40.533-23.467-63.467-64-63.467h-45.867v126.4zM338.667 375.467c21.333 0 33.067 14.4 33.067 41.067 0 26.133-11.733 40.533-33.067 40.533h-18.667v-81.6c0 0 18.667 0 18.667 0zM425.067 479.467h86.933v-22.933h-58.667v-33.6h45.333v-21.867h-45.333v-48h-28.267v126.4zM756.267 874.667h-436.267v-298.667h-234.667v-320h234.667v-234.667h597.333v669.333l-161.067 184zM768 796.8l81.067-92.8h-81.067v92.8zM128 533.333h426.667v-234.667h-426.667v234.667zM362.667 64v192h234.667v320h-234.667v256h362.667v-170.667h149.333v-597.333h-512z" />
<glyph unicode="&#x5a;" glyph-name="standby" data-tags="Bosch-IC-standby" d="M490.667 874.667h42.667v-426.667h-42.667v426.667zM512 21.333c-217.6 0-394.667 177.067-394.667 394.667 0 167.467 104.533 317.333 259.733 372.267l14.4-40c-138.667-49.067-231.467-182.4-231.467-332.267 0-194.133 157.867-352 352-352s352 157.867 352 352c0 149.867-92.8 283.2-230.933 331.733l14.4 40c154.667-54.4 259.2-204.267 259.2-371.733 0-217.6-177.067-394.667-394.667-394.667z" />
<glyph unicode="&#x5b;" glyph-name="asiapacific-frame" data-tags="Bosch-IC-asiapacific-frame" d="M467.733 234.133c0 0 9.067 6.933 9.067 14.933s-3.733 34.667-1.6 43.2c2.133 9.067 12.267 15.467 22.933 19.2 10.133 3.733 24.533 8 32.533 15.467 8 8 15.467 20.267 21.333 21.867 6.4 1.6 14.4-5.333 17.6-3.733s8 11.2 19.733 14.4c11.2 3.2 19.2 3.2 19.2 0.533s-12.267-17.6 3.2-25.6 22.4 0 22.4 5.333 1.6 25.6 8.533 25.6 16.533-19.733 13.867-29.867-3.733-17.067 4.8-28.8c8.533-11.2 22.933-14.933 20.8-27.2s-1.067-21.333-11.2-31.467c-10.133-9.6-11.733-6.933-19.2-16s-11.2-19.2-16.533-21.333-12.267-6.4-18.667-6.4-19.733-2.133-21.867 2.667-5.867 12.267-5.333 20.8c0.533 8-1.6 13.333-6.4 11.2s-5.333-8-10.133-5.867c-5.333 2.133-5.333 19.733-33.067 12.267-27.2-6.933-47.467-18.133-55.467-18.133s-16.533 0.533-16.533 6.933zM273.067 694.933c-0.533 12.8 16 22.933 24.533 27.2s9.6 10.133 18.667 8 16.533-10.133 24-7.467c7.467 2.667 2.133 10.133 8.533 10.133s35.733-12.267 52.8-12.267 33.067-2.667 37.333 0.533c4.267 3.733 3.2 13.867 0.533 17.067s6.4 14.933 20.267 5.333c13.867-9.6 16.533-19.2 27.2-23.467 11.2-4.267 21.333-8 28.267-8 6.933-0.533 13.333-5.867 10.133-9.6s-7.467-9.6-6.933-21.333c0.533-12.267 7.467-19.733 12.267-27.2s13.333-10.667 5.867-13.867-9.6-5.867-15.467 6.4-19.733 24.533-27.2 24c-6.933-0.533-14.4 2.133-16.533-2.667-2.133-5.333-5.333-9.6 1.6-12.267s16 0.533 12.8-6.4c-3.2-7.467-8-10.667-0.533-18.133 7.467-8 17.6-11.2 17.067-26.667s-2.133-25.6-14.933-32-37.333-6.933-41.067-9.6-13.867-6.4-11.733-12.267c2.133-5.867 17.6-17.067 19.2-27.733 1.6-11.2 6.4-19.2-0.533-23.467-6.4-4.267-12.8-12.8-17.6-12.267s-1.6 13.867-12.8 20.8c-11.2 6.4-15.467 8-16.533 2.133-0.533-5.867-4.267-13.867 3.733-25.6s19.2-23.467 20.267-28.8c1.067-5.333-0.533-18.133-8-7.467-8 10.667-20.8 30.933-21.867 35.733-1.067 5.333 0.533 18.133-2.667 30.933s-7.467 21.867-11.2 20.267c-3.733-1.6-9.067-1.067-12.8 8-3.733 9.6-16.533 29.867-29.333 27.733s-36.267-16.533-41.067-34.133-2.133-35.733-6.933-41.067-4.267-12.267-9.067-10.667-27.2 44.8-29.333 58.133c-2.133 12.8-3.2 18.667-5.333 19.733-2.133 0.533-14.933 0-13.867 14.4 0.533 14.4 7.467 19.2 12.267 18.667s19.733 4.8 20.8 8.533-2.667 16.533-12.267 16.533-13.333 6.4-7.467 17.067c5.867 10.133 5.333 13.867 2.133 19.2s-9.6 10.133-2.133 14.4 15.467 8.533 14.933 23.467zM598.933 194.667c9.067 5.867 14.933 0.533 14.933-2.667s-5.333-11.2-12.267-13.333-5.867 13.867-2.667 16zM702.4 174.933l24 14.933c0 0 8.533 11.2 10.133 6.933s2.133-10.667-5.867-16.533-19.2-12.8-24-16.533-29.333 1.6-4.267 11.2zM750.4 210.133c-3.733-2.667-10.133-22.933-1.6-18.133s19.733 9.067 22.4 15.467-6.4 3.733-7.467 12.267c-0.533 8.533-5.333 10.667-6.4 3.2-0.533-7.467-1.067-9.067-6.933-12.8zM395.2 465.067c-6.933 0-1.067-5.867 1.6-9.067s11.733-9.6 20.267-24c8.533-14.933 15.467-35.2 25.067-30.933s3.733 17.6-12.267 34.667c-16 17.6-21.867 29.333-34.667 29.333zM486.933 452.267c0 0 12.8 8.533 14.4 12.267s6.4 8 10.667 5.333c3.733-3.2 2.133-6.933-1.067-11.733s5.333-15.467 3.733-18.133-5.333-25.6-13.333-26.667-24-6.4-29.867 3.733c-5.867 9.6-6.933 17.6-5.333 22.933s19.2 2.133 20.8 12.267zM450.667 395.733c-3.2-3.2 8-6.933 14.4-8s30.933-9.6 32-4.267-16 8.533-24 9.6c-7.467 1.067-19.2 5.867-22.4 2.667zM586.667 429.867c-6.933-0.533 5.333-5.333 6.4-8s0-7.467 5.333-10.667 19.733-2.133 24-11.2c3.733-9.067-4.267-11.2 0.533-12.267s9.6-8.533 17.6-8 13.867 10.133 20.267 6.4c6.4-3.733 20.267-19.733 25.6-18.133s-12.8 18.133-20.267 25.067c-7.467 6.4-3.733 11.733-18.667 19.2s-24 13.867-27.733 12.267c-3.733-1.067-12.8-8.533-13.867-5.867-2.133 3.2-6.4 11.733-19.2 11.2zM550.933 636.8c-1.067-3.2 8-4.267 17.6-1.6 5.867 1.6 16.533 1.067 20.8 5.867 3.2 3.733 0 11.733 0.533 14.933 1.067 9.067-4.8 16-10.667 16-8 0 10.133-10.133-1.067-19.733-11.2-8.533-25.067-6.933-27.2-15.467zM573.867 678.4c0 0-7.467 2.667-5.867 9.6 1.6 6.4-2.667 9.067 0 10.667s5.333-5.333 10.667-7.467 14.933-0.533 13.867-3.733c-0.533-3.2-6.933-3.733-10.667-4.8-3.2-1.067-3.733-3.733-8-4.267zM535.467 749.333c-12.8-3.2 6.4-8.533 12.8-18.667s11.2-25.067 17.6-21.867c6.4 3.2-4.8 18.133-8 22.933s-14.4 19.2-22.4 17.6zM520.533 542.4c4.267 5.867 9.6-3.2 9.6-7.467-0.533-4.267-5.333-11.2 1.067-14.933s12.8-5.867 10.667-8.533-13.867 1.6-17.067 5.867c-3.733 4.267-10.133 17.067-4.267 25.067zM523.733 402.133c5.867 1.067 1.067 11.2 4.8 12.8s5.333-11.2 11.2-8c5.333 3.733-2.667 9.067-2.667 12.267 0 3.733 8.533 3.733 5.867 6.933-2.667 3.733-15.467 0.533-13.867 4.8 1.6 3.733 11.2 0.533 15.467 2.667 3.733 2.133 1.067 8-12.267 8s-8-1.6-9.067-6.4c-0.533-5.333 2.133-8 0.533-11.733-2.133-3.733-3.733-22.4 0-21.333zM552 489.067c4.267 0.533 8-13.867 6.4-16s-4.267-8-9.067-6.933c-4.8 1.067-2.133 8-5.867 9.6s-8 2.133-8 4.267c1.067 2.667 14.4 8.533 16.533 9.067zM512 21.333c-235.2 0-426.667 191.467-426.667 426.667s191.467 426.667 426.667 426.667 426.667-191.467 426.667-426.667-191.467-426.667-426.667-426.667zM512 832c-211.733 0-384-172.267-384-384s172.267-384 384-384 384 172.267 384 384-172.267 384-384 384z" />
<glyph unicode="&#x5c;" glyph-name="close-all" data-tags="Bosch-IC-close-all" d="M682.667 789.333h-512v-512h512v512zM640 320h-426.667v426.667h426.667v-426.667zM810.667 640v-490.667h-490.667v-42.667h533.333v533.333zM768 725.333h-42.667v-490.667h-490.667v-42.667h533.333zM345.6 422.4l81.067 80.533 81.067-80.533 29.867 29.867-80.533 81.067 80.533 81.067-29.867 29.867-81.067-80.533-81.067 80.533-29.867-29.867 80.533-81.067-80.533-81.067z" />
<glyph unicode="&#x5d;" glyph-name="atom" data-tags="Bosch-IC-atom" d="M829.333 409.6c-10.667 12.8-22.4 25.6-35.2 38.4 82.667 83.2 116.8 162.133 86.933 213.333-24.533 42.667-88 58.133-177.6 42.667-16.533-2.667-33.067-6.4-50.667-11.2-4.8 17.6-10.133 34.133-15.467 49.6-31.467 85.333-75.733 132.267-125.333 132.267-51.733 0-97.067-50.133-128.533-141.333 13.333-3.733 27.2-7.467 41.067-12.267 24 69.333 56.533 110.933 87.467 110.933 36.267 0 75.2-57.067 100.267-151.467-32.533-10.667-66.133-24-100.267-40-67.2 31.467-133.333 53.333-192 63.467-90.133 15.467-153.067 0.533-177.6-42.667-24.533-42.667-6.4-105.067 52.267-174.933 10.667-12.8 22.4-25.6 35.2-38.4-83.2-83.2-116.8-162.133-86.933-213.333 18.667-32 58.133-48.533 114.133-48.533 19.2 0 40.533 2.133 63.467 5.867 16.533 2.667 33.067 6.4 50.667 11.2 4.8-17.6 10.133-34.133 15.467-49.6 31.467-85.333 76.267-132.8 125.867-132.8 51.733 0 97.067 50.133 128.533 141.333-13.333 3.733-27.2 7.467-41.067 12.267-24.533-68.267-57.6-110.4-88-110.4-36.267 0-75.2 57.067-100.267 151.467 32.533 10.667 66.133 24 100.267 40 67.2-31.467 133.333-53.333 192-63.467 22.933-3.733 44.267-5.867 63.467-5.867 56 0 95.467 16.533 114.133 48.533 24.533 42.667 6.4 105.067-52.267 174.933zM710.933 661.867c68.8 11.733 118.933 3.733 133.333-21.867 20.8-35.733-20.267-100.267-81.6-162.133-25.067 22.4-53.333 44.8-84.267 66.133-3.2 37.333-8.533 73.6-15.467 106.667 16.533 4.8 32.533 8.533 48 11.2zM622.4 638.933c4.267-20.267 7.467-41.6 10.133-64-11.733 6.933-23.467 14.4-35.2 21.333s-24 13.333-35.733 19.733c20.267 8.533 40.533 16 60.8 22.933zM313.067 234.133c-68.8-11.733-118.933-3.733-133.333 21.867-11.733 20.267-3.2 53.867 24 94.933 14.4 21.867 33.6 44.267 57.067 67.733 25.6-22.933 53.867-45.333 84.8-66.667 3.2-37.333 8.533-73.6 15.467-106.667-16.533-4.8-32.533-8.533-48-11.2zM401.6 257.067c-4.267 20.267-7.467 41.6-10.133 64 11.733-6.933 23.467-14.4 35.2-21.333s24-13.333 35.733-19.733c-20.267-8.533-40.533-16-60.8-22.933zM844.8 256c-14.933-25.6-64.533-33.6-133.333-21.867-45.867 8-96.533 24-149.867 46.4 8 4.267 16 8.533 24 12.8l1.6 9.067c1.6 11.733 3.2 27.733 4.8 43.733-5.333-3.2-10.133-6.4-15.467-9.067-21.333-12.267-42.667-23.467-64-34.133-21.333 10.667-42.667 21.867-64 34.133-21.867 12.8-42.133 25.6-61.333 38.4-1.6 23.467-2.667 47.467-2.667 72.533 0 50.667 3.733 101.333 10.667 148.267-13.867 4.8-27.733 9.067-41.067 12.8-8.533-51.2-12.8-105.067-12.8-161.067 0-13.867 0-27.2 0.533-41.067-18.133 13.867-34.667 27.2-50.133 41.067 2.133 2.133 4.8 4.267 6.933 6.4 0.533 10.133 1.6 32 2.667 57.6-14.4-11.733-28.267-22.933-41.067-34.667-69.333 69.333-99.2 131.2-81.067 162.667 10.133 17.6 37.867 27.2 76.8 27.2 17.067 0 36.267-1.6 57.067-5.333 45.867-8 96.533-24 149.867-46.4-8-4.267-16-8.533-24-12.8l-2.133-12.8c-1.6-11.2-3.2-25.067-4.267-40 5.333 3.2 10.133 6.4 15.467 9.067 21.333 12.267 42.667 23.467 64 34.133 21.333-10.667 42.667-21.867 64-34.133 21.867-12.8 42.133-25.6 61.333-38.4 1.6-23.467 2.667-47.467 2.667-72.533 0-52.8-3.733-104-11.2-152 14.4-3.733 28.267-6.933 41.6-10.133 8 51.2 12.267 105.6 12.267 162.133 0 13.867 0 27.2-0.533 41.067 18.133-13.333 34.667-27.2 50.133-40.533-2.133-2.133-4.8-4.267-6.933-5.867-0.533-10.133-1.6-32-2.667-58.133 14.4 11.733 28.267 22.933 41.067 34.667 68.8-69.333 99.2-131.733 81.067-163.2zM512 533.333c-46.933 0-85.333-38.4-85.333-85.333s38.4-85.333 85.333-85.333 85.333 38.4 85.333 85.333-38.4 85.333-85.333 85.333zM512 405.333c-23.467 0-42.667 19.2-42.667 42.667s19.2 42.667 42.667 42.667 42.667-19.2 42.667-42.667-19.2-42.667-42.667-42.667z" />
<glyph unicode="&#x5e;" glyph-name="arrow-left-frame" data-tags="Bosch-IC-arrow-left-frame" d="M462.933 356.267l-69.867 70.4h332.267v42.667h-332.267l69.867 70.4-29.867 29.867-122.133-121.6 122.133-121.6zM512 21.333c235.2 0 426.667 191.467 426.667 426.667s-191.467 426.667-426.667 426.667-426.667-191.467-426.667-426.667 191.467-426.667 426.667-426.667zM512 832c211.733 0 384-172.267 384-384s-172.267-384-384-384-384 172.267-384 384 172.267 384 384 384z" />
<glyph unicode="&#x5f;" glyph-name="arrow-right-up" data-tags="Bosch-IC-arrow-right-up" d="M581.333 789.333v-42.667h198.933l-603.2-603.733 29.867-29.867 603.733 603.2v-209.6h42.667v282.667z" />
<glyph unicode="&#x61;" glyph-name="facebook-frame" data-tags="Bosch-IC-facebook-frame" d="M526.933 566.933c0 12.8 8.533 19.2 14.933 19.2 17.067 2.133 53.333 0 53.333 0v74.667c0 0-14.933 2.133-78.933 0s-76.8-59.733-76.8-74.667 0-68.267 0-68.267h-44.8v-70.4h44.8v-212.8h87.467v212.8h59.733l10.667 70.4h-70.4v49.067zM512 21.333c-235.2 0-426.667 191.467-426.667 426.667s191.467 426.667 426.667 426.667 426.667-191.467 426.667-426.667-191.467-426.667-426.667-426.667zM512 832c-211.733 0-384-172.267-384-384s172.267-384 384-384 384 172.267 384 384-172.267 384-384 384z" />
<glyph unicode="&#x62;" glyph-name="googleplus-frame" data-tags="Bosch-IC-googleplus-frame" d="M435.2 473.6v-53.333c0 0 51.2 0 72.533 0-10.667-34.133-29.867-53.333-72.533-53.333-44.8 0-78.933 36.267-78.933 81.067s34.133 81.067 78.933 81.067c23.467 0 38.4-8.533 53.333-19.2 10.667 10.667 10.667 12.8 38.4 38.4-23.467 21.333-55.467 34.133-89.6 34.133-74.667 0-134.4-59.733-134.4-134.4s59.733-134.4 134.4-134.4c110.933 0 138.667 96 130.133 162.133-29.867-2.133-132.267-2.133-132.267-2.133zM678.4 518.4h-34.133v-46.933h-46.933v-34.133h46.933v-46.933h34.133v46.933h46.933v34.133h-46.933zM512 874.667c-235.2 0-426.667-191.467-426.667-426.667s191.467-426.667 426.667-426.667 426.667 191.467 426.667 426.667-191.467 426.667-426.667 426.667zM512 64c-211.733 0-384 172.267-384 384s172.267 384 384 384 384-172.267 384-384-172.267-384-384-384z" />
<glyph unicode="&#x63;" glyph-name="instagram-frame" data-tags="Bosch-IC-instagram-frame" d="M512 21.333c-235.2 0-426.667 191.467-426.667 426.667s191.467 426.667 426.667 426.667 426.667-191.467 426.667-426.667-191.467-426.667-426.667-426.667zM512 832c-211.733 0-384-172.267-384-384s172.267-384 384-384 384 172.267 384 384-172.267 384-384 384zM512 624c56 0 62.4 0 84.8-2.133 20.8 0 30.933-4.267 39.467-6.4 10.133-4.267 16.533-8.533 25.067-16.533 8.533-8.533 12.267-14.4 16.533-25.067 2.133-8.533 6.4-18.667 6.4-39.467 0-22.933 2.133-28.8 2.133-84.8s0-62.4-2.133-84.8c0-20.8-4.267-30.933-6.4-39.467-4.267-10.133-8.533-16.533-16.533-25.067-8.533-8.533-14.4-12.267-25.067-16.533-8.533-2.133-18.667-6.4-39.467-6.4-22.933 0-28.8-2.133-84.8-2.133s-62.4 0-84.8 2.133c-20.8 0-30.933 4.267-39.467 6.4-10.133 4.267-16.533 8.533-25.067 16.533-8.533 8.533-12.267 14.4-16.533 25.067-2.133 8.533-6.4 18.667-6.4 39.467 0 22.933-2.133 28.8-2.133 84.8s0 62.4 2.133 84.8c0 20.8 4.267 30.933 6.4 39.467 4.267 10.133 8.533 16.533 16.533 25.067 8.533 8.533 14.4 12.267 25.067 16.533 8.533 2.133 18.667 6.4 39.467 6.4 22.4 2.133 28.8 2.133 84.8 2.133zM512 661.333c-56 0-64 0-86.933-2.133-22.933 0-37.333-4.267-51.733-10.133-14.4-6.4-25.067-12.267-37.333-25.067-12.267-12.267-18.667-22.933-25.067-37.333-6.4-12.267-8.533-28.8-10.133-51.733 0-22.933-2.133-28.8-2.133-86.933 0-56 0-64 2.133-86.933 0-22.933 4.267-37.333 10.133-51.733 6.4-14.4 12.267-25.067 25.067-37.333 12.267-12.267 22.933-18.667 37.333-25.067 12.267-6.4 28.8-8.533 51.733-10.133 22.933 0 28.8-2.133 86.933-2.133s64 0 86.933 2.133c22.933 0 37.333 4.267 51.733 10.133 14.4 6.4 25.067 12.267 37.333 25.067 12.267 12.267 18.667 22.933 25.067 37.333 6.4 12.267 8.533 28.8 10.133 51.733 0 22.933 2.133 28.8 2.133 86.933s0 64-2.133 86.933c0 22.933-4.267 37.333-10.133 51.733-6.4 14.4-12.267 25.067-25.067 37.333-12.267 12.267-22.933 18.667-37.333 25.067-12.267 6.4-28.8 8.533-51.733 10.133-22.933 2.133-30.933 2.133-86.933 2.133v0zM512 560c-60.267 0-107.733-48-107.733-107.733s47.467-107.733 107.733-107.733 107.733 47.467 107.733 107.733-47.467 107.733-107.733 107.733zM512 381.867c-39.467 0-70.4 30.933-70.4 70.4s30.933 70.4 70.4 70.4 70.4-30.933 70.4-70.4c0-37.333-30.933-70.4-70.4-70.4zM649.067 563.733c0-13.844-11.223-25.067-25.067-25.067s-25.067 11.223-25.067 25.067c0 13.844 11.223 25.067 25.067 25.067s25.067-11.223 25.067-25.067z" />
<glyph unicode="&#x64;" glyph-name="linkedin-frame" data-tags="Bosch-IC-linkedin-frame" d="M682.667 410.667v-126.4h-73.6v117.867c0 28.8-10.133 49.6-37.333 49.6-20.267 0-32.533-13.867-37.333-27.2-1.6-5.333-1.6-11.733-1.6-17.067v-122.667h-73.6c0 0 1.6 199.467 0 220.267h73.6v-30.933c10.133 15.467 27.2 35.733 66.667 35.733 47.467 1.067 83.2-30.933 83.2-99.2v0zM382.4 611.733c-25.6 0-41.067-17.067-41.067-37.333s15.467-37.333 41.067-37.333v0c25.6 0 41.067 17.067 41.067 37.333s-15.467 37.333-41.067 37.333v0zM346.667 285.867h73.6v218.667h-73.6v-218.667zM512 21.333c-235.2 0-426.667 191.467-426.667 426.667s191.467 426.667 426.667 426.667 426.667-191.467 426.667-426.667-191.467-426.667-426.667-426.667zM512 832c-211.733 0-384-172.267-384-384s172.267-384 384-384 384 172.267 384 384-172.267 384-384 384z" />
<glyph unicode="&#x65;" glyph-name="pinterest-frame" data-tags="Bosch-IC-pinterest-frame" d="M512 21.333c-235.2 0-426.667 191.467-426.667 426.667s191.467 426.667 426.667 426.667 426.667-191.467 426.667-426.667-191.467-426.667-426.667-426.667zM512 832c-211.733 0-384-172.267-384-384s172.267-384 384-384 384 172.267 384 384-172.267 384-384 384zM480.533 379.733c-2.133-14.933-6.4-27.733-8.533-40.533-6.4-27.733-14.933-53.333-29.867-76.8-6.4-10.667-14.933-19.2-25.6-27.733 0 12.8-2.133 21.333-2.133 32-2.133 42.667 6.4 83.2 17.067 123.733 6.4 21.333 10.667 42.667 17.067 64 0 4.267 0 8.533 0 10.667-10.667 29.867-8.533 57.6 8.533 83.2 8.533 12.8 21.333 21.333 38.4 19.2 21.333-4.267 32-17.067 27.733-36.267-2.133-17.067-8.533-34.133-10.667-49.067-4.267-14.933-8.533-27.733-10.667-42.667-4.267-29.867 12.8-44.8 42.667-42.667 23.467 2.133 38.4 14.933 49.067 32 25.6 42.667 32 89.6 17.067 138.667-10.667 29.867-34.133 44.8-61.867 53.333-66.133 17.067-140.8-29.867-151.467-98.133-4.267-21.333-2.133-40.533 10.667-59.733 8.533-12.8 10.667-25.6 4.267-40.533-2.133-6.4-6.4-8.533-12.8-6.4-27.733 8.533-42.667 27.733-49.067 55.467-8.533 46.933 0 91.733 29.867 128 34.133 40.533 78.933 59.733 132.267 61.867 36.267 0 72.533-6.4 104.533-27.733 36.267-23.467 57.6-57.6 59.733-102.4 2.133-49.067-6.4-93.867-36.267-132.267-25.6-32-59.733-49.067-100.267-46.933-14.933 0-25.6 6.4-38.4 14.933-8.533 4.267-12.8 6.4-21.333 12.8z" />
<glyph unicode="&#x66;" glyph-name="tumblr-frame" data-tags="Bosch-IC-tumblr-frame" d="M578.667 306.667c-12.8 0-23.467 2.133-32 8.533-6.4 4.267-12.8 10.667-14.933 17.067s-4.267 23.467-4.267 46.933v108.267h99.733v65.6h-99.2v108.267h-61.867c-2.133-21.333-8.533-40.533-14.933-54.933-6.4-14.933-17.067-25.6-27.733-36.267-12.8-10.667-25.6-17.067-42.667-23.467v-59.2h46.933v-148.8c0-19.2 2.133-34.133 6.4-44.8s10.667-19.2 21.333-29.867c10.667-8.533 23.467-17.067 38.4-21.333s32-8.533 51.2-8.533c17.067 0 34.133 2.133 49.067 4.267s29.867 8.533 49.067 17.067v67.733c-19.733-10.133-41.067-16.533-64.533-16.533v0zM512 21.333c-235.2 0-426.667 191.467-426.667 426.667s191.467 426.667 426.667 426.667 426.667-191.467 426.667-426.667-191.467-426.667-426.667-426.667zM512 832c-211.733 0-384-172.267-384-384s172.267-384 384-384 384 172.267 384 384-172.267 384-384 384z" />
<glyph unicode="&#x67;" glyph-name="twitter-frame" data-tags="Bosch-IC-twitter-frame" d="M512 21.333c-235.2 0-426.667 191.467-426.667 426.667s191.467 426.667 426.667 426.667 426.667-191.467 426.667-426.667-191.467-426.667-426.667-426.667zM512 832c-211.733 0-384-172.267-384-384s172.267-384 384-384 384 172.267 384 384-172.267 384-384 384zM510.933 513.6c-71.467 10.667-107.2 20.8-182.933 90.133 0 0-37.867-58.667 25.067-115.733 0 0-29.333 2.133-37.867 10.667 0 0-4.267-60.8 65.067-84.267 0 0-6.4-17.067-33.6-14.933 0 0 12.8-40 77.867-50.667 0 0-44.267-44.267-125.867-35.733 0 0 73.6-62.933 210.133-29.333 113.6 29.333 161.6 161.6 161.6 161.6s14.933 48.533 10.667 88.533c0 0 27.2 20.8 44.267 44.267l-48.533-12.8c0 0 29.333 20.8 35.733 46.4l-52.8-20.8c0 0-22.933 35.733-77.867 29.333-17.067-2.133-29.333-8.533-40-17.067-22.933-17.067-33.6-44.267-33.6-73.6l2.667-16z" />
<glyph unicode="&#x68;" glyph-name="vimeo-frame" data-tags="Bosch-IC-vimeo-frame" d="M725.333 547.2c-2.133-41.6-30.933-98.667-86.933-170.667-58.133-75.733-107.2-113.067-147.2-113.067-25.067 0-45.867 22.933-62.933 68.8-11.733 42.133-22.933 84.267-34.667 126.4-12.8 45.867-26.667 68.8-41.067 68.8-3.2 0-14.4-6.933-33.6-20.267l-20.267 26.133c20.8 18.667 41.6 37.333 62.4 55.467 28.267 24.533 49.067 37.333 63.467 38.4 33.067 3.2 53.333-19.2 60.8-67.733 8.533-52.267 13.867-85.333 17.067-98.133 9.6-43.733 20.267-65.6 31.467-65.6 9.067 0 22.4 14.4 40 42.133 18.133 28.267 27.2 49.6 28.8 64.533 2.667 24.533-6.933 36.8-28.8 36.8-10.133 0-20.8-2.133-31.467-6.933 20.8 68.8 60.8 102.4 120 100.267 44.8-1.067 65.067-29.333 62.933-85.333zM512 21.333c-235.2 0-426.667 191.467-426.667 426.667s191.467 426.667 426.667 426.667 426.667-191.467 426.667-426.667-191.467-426.667-426.667-426.667zM512 832c-211.733 0-384-172.267-384-384s172.267-384 384-384 384 172.267 384 384-172.267 384-384 384z" />
<glyph unicode="&#x69;" glyph-name="xing-frame" data-tags="Bosch-IC-xing-frame" d="M512 21.333c-235.2 0-426.667 191.467-426.667 426.667s191.467 426.667 426.667 426.667 426.667-191.467 426.667-426.667-191.467-426.667-426.667-426.667zM512 832c-211.733 0-384-172.267-384-384s172.267-384 384-384 384 172.267 384 384-172.267 384-384 384zM558.933 234.667l-96 166.4 149.333 260.267h100.267l-147.2-260.267 96-166.4h-102.4zM405.333 362.667l74.667 121.6-55.467 98.133h-93.867l55.467-98.133-74.667-121.6h93.867z" />
<glyph unicode="&#x6a;" glyph-name="youtube-frame" data-tags="Bosch-IC-youtube-frame" d="M680.533 597.867h-339.2c-23.467 0-42.667-19.2-42.667-42.667v-214.4c0-23.467 19.2-42.667 42.667-42.667h341.333c23.467 0 42.667 19.2 42.667 42.667v214.4c0 23.467-19.2 42.667-44.8 42.667zM472.533 396.8v91.733l96.533-46.933-96.533-44.8zM512 21.333c-235.2 0-426.667 191.467-426.667 426.667s191.467 426.667 426.667 426.667 426.667-191.467 426.667-426.667-191.467-426.667-426.667-426.667zM512 832c-211.733 0-384-172.267-384-384s172.267-384 384-384 384 172.267 384 384-172.267 384-384 384z" />
<glyph unicode="&#x6b;" glyph-name="share-frame" data-tags="Bosch-IC-share-frame" d="M618.667 490.667c46.933 0 85.333 38.4 85.333 85.333s-38.4 85.333-85.333 85.333-85.333-38.4-85.333-85.333c0-5.867 0.533-12.267 2.133-17.6l-108.8-54.4c-15.467 18.133-38.4 29.333-64 29.333-46.933 0-85.333-38.4-85.333-85.333s38.4-85.333 85.333-85.333c25.6 0 48.533 11.2 64 29.333l108.267-54.4c-1.067-5.867-2.133-11.733-2.133-17.6 0-46.933 38.4-85.333 85.333-85.333s85.333 38.4 85.333 85.333-38.4 85.333-85.333 85.333c-25.6 0-48.533-11.2-64-29.333l-108.267 54.4c1.067 5.867 2.133 11.733 2.133 17.6s-0.533 12.267-2.133 17.6l108.8 54.4c15.467-18.133 38.4-29.333 64-29.333zM618.667 362.667c23.467 0 42.667-19.2 42.667-42.667s-19.2-42.667-42.667-42.667-42.667 19.2-42.667 42.667 19.2 42.667 42.667 42.667zM362.667 405.333c-23.467 0-42.667 19.2-42.667 42.667s19.2 42.667 42.667 42.667 42.667-19.2 42.667-42.667-19.2-42.667-42.667-42.667zM618.667 618.667c23.467 0 42.667-19.2 42.667-42.667s-19.2-42.667-42.667-42.667-42.667 19.2-42.667 42.667 19.2 42.667 42.667 42.667zM512 874.667c-235.2 0-426.667-191.467-426.667-426.667s191.467-426.667 426.667-426.667 426.667 191.467 426.667 426.667-191.467 426.667-426.667 426.667zM512 64c-211.733 0-384 172.267-384 384s172.267 384 384 384 384-172.267 384-384-172.267-384-384-384z" />
<glyph unicode="&#x6c;" glyph-name="snapchat-frame" data-tags="Bosch-IC-snapchat-frame" d="M512 21.333c-235.2 0-426.667 191.467-426.667 426.667s191.467 426.667 426.667 426.667 426.667-191.467 426.667-426.667-191.467-426.667-426.667-426.667zM512 832c-211.733 0-384-172.267-384-384s172.267-384 384-384 384 172.267 384 384-172.267 384-384 384zM713.067 351.467c-21.867 3.733-52.8 17.6-77.333 64.533-0.533 1.6-1.067 2.667-1.6 3.2-2.133 4.267-2.133 7.467-1.6 10.133 4.8 6.933 13.333 10.667 18.133 11.733 2.667 0 5.333 1.067 6.933 2.133l2.133 0.533c17.067 6.4 25.067 14.4 25.067 24 0 9.067-5.333 16.533-14.4 19.733-4.267 3.2-9.6 3.2-12.267 3.2s-8 0-11.2-3.733c-5.333-3.2-12.267-4.267-15.467-3.733v7.467c0 6.4 0 12.8 0.533 19.2 0.533 24.533 1.6 50.133-6.933 66.667-28.267 61.867-84.8 68.8-109.867 68.8h-7.467c-22.933 0-80-6.933-107.733-68.267-10.133-20.267-9.067-52.8-6.933-86.4v-5.333c-3.733-1.6-10.667 0-18.133 2.667-2.133 2.133-5.333 4.267-10.667 4.267-9.6 0-20.8-5.867-24.533-16l-0.533-3.2c0-13.333 13.333-20.8 24.533-26.133l2.667-1.067c1.067-0.533 2.667-1.067 4.8-1.6l3.2-1.067c6.4-2.667 15.467-5.867 17.067-9.6 1.067-3.2 1.067-6.4-1.6-11.733l-1.067-2.133v-0.533c-3.2-6.933-27.733-56.533-76.267-64.533-6.933 0-13.333-6.4-13.333-15.467l0.533-3.2c3.733-11.733 20.8-19.2 54.933-25.067 0.533-1.067 1.067-3.2 1.6-5.867 0-3.2 0-6.933 2.133-11.2 1.067-3.733 3.733-10.667 14.933-10.667 2.667 0 4.8 1.067 7.467 2.133 2.667 0 5.867 0.533 9.6 1.067 5.867 0.533 12.8 1.6 20.267 0 3.2-0.533 6.933-1.067 8.533-1.067 9.067-1.6 19.2-6.4 28.8-13.867l4.267-2.667c14.4-9.067 30.933-19.733 56-19.733h5.867c18.133 0 31.467 6.4 43.733 11.733 4.8 2.133 9.6 4.267 16 6.4 3.733 1.6 6.933 3.733 10.667 5.867 6.933 4.267 12.8 7.467 20.8 9.067 10.133 3.2 25.6 2.133 33.067 0.533 4.267-2.667 9.6-2.667 11.733-2.667 10.133 0 15.467 6.933 16 14.933 0.533 1.6 1.6 4.267 1.067 5.867l1.067 4.267c0 0.533 0 1.6 0.533 2.133 34.667 5.333 51.733 13.333 56 25.067l0.533 4.8c0 8-6.933 14.4-12.267 14.4z" />
<glyph unicode="&#x6d;" glyph-name="share" data-tags="Bosch-IC-share" d="M778.667 341.333c-60.267 0-112.533-33.6-139.733-82.667l-251.2 115.733c11.2 22.4 17.6 46.933 17.6 73.6s-6.4 51.2-17.6 73.067l251.2 115.733c27.2-49.067 80-82.667 139.733-82.667 88 0 160 72 160 160s-72 160-160 160-160-72-160-160c0-12.8 1.6-25.6 4.267-37.867l-260.267-119.467c-29.333 31.467-70.933 51.2-117.333 51.2-88 0-160-72-160-160s72-160 160-160c46.4 0 88 19.733 117.333 51.2l260.8-120.533c-2.667-12.267-4.267-24.533-4.267-37.867 0-88 72-160 160-160s160 72 160 160-72.533 160.533-160.533 160.533zM778.667 832c64.533 0 117.333-52.8 117.333-117.333s-52.8-117.333-117.333-117.333-117.333 52.8-117.333 117.333 52.8 117.333 117.333 117.333zM245.333 330.667c-64.533 0-117.333 52.8-117.333 117.333s52.8 117.333 117.333 117.333 117.333-52.8 117.333-117.333-52.8-117.333-117.333-117.333zM778.667 64c-64.533 0-117.333 52.8-117.333 117.333s52.8 117.333 117.333 117.333 117.333-52.8 117.333-117.333-52.8-117.333-117.333-117.333z" />
<glyph unicode="&#x6e;" glyph-name="THIS-ICON-IS-NO-LONGER-AVAILABLE" data-tags="THIS-ICON-IS-NO-LONGER-AVAILABLE" d="M211.2 285.867h26.133l-13.333 38.4zM576.533 285.867h26.667l-13.333 38.4zM375.467 285.867h26.133l-12.8 38.4zM695.467 317.867c0 6.933-3.733 10.133-11.733 10.133h-18.667v-20.8h19.2c7.467 0.533 11.2 3.733 11.2 10.667zM684.8 293.333h-19.733v-23.467h20.267c4.267 0 8 1.067 10.133 3.733 1.6 2.133 2.667 4.8 2.667 8 0 8-4.267 11.733-13.333 11.733zM335.467 466.667c-2.667-4.8-4.267-11.2-4.267-19.2 0-11.2 2.667-19.2 8-24.533 3.733-3.733 8.533-5.333 13.867-5.333 8 0 13.867 3.2 17.6 10.133 2.667 5.333 4.267 11.733 4.267 19.2 0 8-1.6 14.4-4.267 19.733-3.733 6.933-10.133 10.133-18.133 10.133-7.467 0-13.333-3.2-17.067-10.133zM708.8 565.867c8 0 13.867 3.2 17.6 10.133 2.667 5.333 4.267 11.733 4.267 19.2 0 8-1.6 14.4-4.267 19.733-3.733 6.933-10.133 10.133-18.133 10.133s-13.867-3.2-17.6-10.133c-2.667-4.8-4.267-11.2-4.267-19.2 0-11.2 2.667-19.2 8-24.533 4.267-3.733 9.067-5.333 14.4-5.333zM557.867 417.6c8 0 13.867 3.2 17.6 10.133 2.667 5.333 4.267 11.733 4.267 19.2 0 8-1.6 14.4-4.267 19.733-3.733 6.933-10.133 10.133-18.133 10.133s-13.867-3.2-17.6-10.133c-2.667-4.8-4.267-11.2-4.267-19.2 0-11.2 2.667-19.2 8-24.533 4.267-3.733 9.067-5.333 14.4-5.333zM0 960v-1024h1024v1024h-1024zM768 639.467h22.4l32.533-59.733v59.733h18.133v-88.533h-21.867l-33.6 61.333v-61.333h-17.6v88.533zM678.933 628.8c8 8 18.133 12.267 30.4 12.267 5.867 0 11.2-1.067 16-3.2 5.333-2.133 9.6-4.8 13.333-9.067 8.533-8.533 12.8-19.733 12.8-33.067 0-13.867-4.267-25.067-12.8-34.133-8-8-18.133-12.267-30.4-12.267s-22.4 3.733-29.867 11.733c-8.533 8.533-12.8 19.733-12.8 33.6 0.533 14.4 4.8 25.6 13.333 34.133zM589.333 629.333c7.467 8 17.6 11.733 29.333 11.733 11.2 0 19.733-3.2 26.667-9.6 3.733-3.733 6.933-8.533 10.133-15.467l-17.6-6.933c-1.6 4.8-3.733 8-5.867 10.667-3.2 3.733-8 5.333-13.333 5.333-7.467 0-13.333-3.2-17.067-9.6-2.667-5.333-4.267-11.733-4.267-20.267s1.6-14.933 4.267-19.733c3.733-6.4 9.6-9.6 17.6-9.6 4.8 0 9.067 1.067 12.267 3.733s5.867 6.933 7.467 12.8l17.6-6.933c-1.6-4.267-3.733-8-5.867-10.667s-4.267-5.333-7.467-7.467c-6.4-4.8-14.933-7.467-24.533-7.467-12.267 0-22.4 3.733-29.867 11.2-8.533 8.533-12.267 19.733-12.267 34.133s4.267 25.6 12.8 34.133zM539.733 639.467h19.733v-88.533h-19.733v88.533zM528 480.533c8 8 18.133 12.267 30.4 12.267 5.867 0 11.2-1.067 16-3.2 5.333-2.133 9.6-4.8 13.333-9.067 8.533-8.533 12.8-19.733 12.8-33.067 0-13.867-4.267-25.067-12.8-34.133-8-8-18.133-12.267-30.4-12.267s-22.4 3.733-29.867 11.733c-8.533 8.533-12.8 19.733-12.8 33.6 0.533 14.4 4.8 25.6 13.333 34.133zM508.267 419.2v-16h-58.667v88h19.733v-72.533h38.933zM463.467 582.933c-2.133 1.6-6.4 3.2-12.8 4.267-6.933 1.6-11.733 3.2-14.933 3.733-3.2 1.067-5.333 2.133-7.467 3.2-6.933 4.267-10.133 10.667-10.133 19.2 0 9.6 3.733 17.067 10.667 21.333 5.333 3.733 12.267 5.333 20.8 5.333 16 0 27.733-5.867 34.133-18.133l-16-7.467c-2.133 3.733-4.8 6.4-7.467 8s-6.4 2.133-10.667 2.133c-4.267 0-6.933-1.067-9.067-2.667-2.133-0.533-3.2-3.2-3.2-5.867s1.067-4.8 3.2-6.4 6.4-2.667 11.733-3.733c11.2-2.133 18.667-4.8 23.467-7.467 6.933-4.267 10.133-11.2 10.133-20.267 0-6.933-2.133-12.8-5.867-17.6-3.2-3.733-8-6.4-13.867-8-4.8-1.067-9.6-2.133-15.467-2.133-9.067 0-17.067 1.6-22.933 5.333-5.867 3.2-10.667 8.533-13.867 16l17.067 7.467c1.6-3.733 3.733-6.933 5.867-8.533 3.733-2.667 8-4.267 13.867-4.267 4.267 0 8 1.067 11.2 2.667s4.8 4.8 4.8 8.533c0.533 1.6-1.067 4.267-3.2 5.333zM380.8 639.467h19.733v-88.533h-19.733v88.533zM383.467 481.067c8.533-8.533 12.8-19.733 12.8-33.067 0-13.867-4.267-25.067-12.8-34.133-8-8-18.133-12.267-30.4-12.267s-22.4 3.733-29.867 11.733c-8.533 8.533-12.8 19.733-12.8 33.6s4.267 25.067 12.8 33.6c8 8 18.133 12.267 30.4 12.267 5.867 0 11.2-1.067 16-3.2 5.333-2.133 10.133-4.8 13.867-8.533zM286.933 639.467h19.733v-35.733h33.6v35.733h19.733v-88.533h-19.733v36.8h-33.6v-36.8h-19.733v88.533zM275.2 491.2h18.133v-88.533h-21.333l-33.6 61.333v-61.333h-18.133v88.533h22.4l32.533-59.733v59.733zM205.333 639.467h69.867v-16h-25.067v-72.533h-19.733v73.067h-25.067v15.467zM81.6 403.2h-19.733v88h19.733v-88zM161.6 411.733c-3.2-3.733-8-6.4-13.867-8-4.8-1.067-9.6-2.133-15.467-2.133-9.067 0-17.067 1.6-22.933 5.333s-10.667 8.533-13.867 16l17.067 7.467c1.6-3.733 3.733-6.933 5.867-8.533 3.733-2.667 8-4.267 13.867-4.267 4.267 0 8 1.067 11.2 2.667s4.8 4.8 4.8 8.533c0 3.2-1.067 5.333-3.2 6.933s-6.4 3.2-12.8 4.267c-6.933 1.6-11.733 3.2-14.933 3.733-3.2 1.067-5.333 2.133-7.467 3.2-6.933 4.267-10.133 10.667-10.133 19.2 0 9.6 3.733 17.067 10.667 21.333 5.333 3.733 12.267 5.333 20.8 5.333 16 0 27.733-5.867 34.133-18.133l-16-7.467c-2.133 3.733-4.8 6.4-7.467 8s-6.4 2.133-10.667 2.133c-4.267 0-6.933-1.067-9.067-2.667s-3.2-3.733-3.2-6.933c0-2.667 1.067-4.8 3.2-6.4s6.4-2.667 11.733-3.733c11.2-2.133 18.667-4.8 23.467-7.467 6.933-4.267 10.133-11.2 10.133-20.267-0.533-7.467-2.133-13.333-5.867-18.133zM248 254.933l-5.867 17.067h-35.733l-5.867-17.067h-18.667l32.533 88.533h22.933l32-88.533h-21.333zM297.067 254.933l-30.4 88.533h21.333l20.8-64.533 20.267 64.533h19.2l-30.4-88.533h-20.8zM412.267 254.933l-5.867 17.067h-35.733l-5.867-17.067h-18.667l32.533 88.533h22.933l32-88.533h-21.333zM464.533 254.933h-19.733v88.533h19.733v-88.533zM544 254.933h-58.667v88.533h19.733v-72.533h38.933v-16zM613.333 254.933l-5.867 17.067h-35.733l-5.867-17.067h-18.667l32.533 88.533h22.933l32-88.533h-21.333zM635.2 403.2h-18.133v88h22.4l32.533-59.733v59.733h18.133v-88.533h-21.867l-33.6 61.333v-60.8zM710.4 261.867c-5.333-4.8-13.333-6.933-23.467-6.933h-41.067v88.533h40c10.667 0 18.667-2.667 23.467-8 3.733-3.733 5.333-9.067 5.333-15.467 0-4.8-1.067-8.533-2.667-11.2s-5.333-5.333-9.6-7.467c4.267-1.6 8-3.733 10.133-5.867 3.733-3.733 5.867-9.067 5.867-15.467-0.533-8-3.2-13.867-8-18.133zM707.2 446.933c0 14.4 4.267 25.6 12.8 34.133 8 8 18.133 11.733 29.867 11.733 11.2 0 19.733-3.2 26.667-9.6 3.733-3.2 6.933-8 9.6-13.867l-18.133-6.933c-1.6 4.267-3.2 7.467-5.333 9.6-3.2 3.2-7.467 5.333-13.333 5.333-8 0-13.333-3.2-17.6-9.6-3.2-5.333-4.267-11.733-4.267-20.267 0-8 1.6-14.4 4.267-19.2 3.733-6.4 10.133-10.133 18.133-10.133 6.4 0 11.2 1.6 14.933 5.333 3.2 3.2 5.333 7.467 5.333 12.8v0.533h-18.133v14.933h37.867v-48.533h-11.2l-3.733 12.8c-3.2-4.8-6.933-8-10.667-10.133-4.8-2.667-10.133-4.267-17.067-4.267-11.2 0-20.8 3.733-28.267 11.2-7.467 8.533-11.733 19.733-11.733 34.133zM791.467 254.933h-58.667v88.533h19.733v-72.533h38.933v-16zM868.267 254.933h-64v88.533h61.867v-16h-42.667v-19.733h32.533v-14.933h-32.533v-21.867h44.267v-16zM872.533 403.2h-64v88h61.867v-16h-42.667v-19.733h32.533v-14.933h-32.533v-21.867h44.267v-15.467zM962.133 403.2h-20.267c-2.133 3.733-4.267 10.667-6.4 21.333-1.067 4.8-2.667 8-4.8 9.6-2.133 2.133-5.333 2.667-9.067 2.667h-13.333v-33.6h-19.733v88h38.933c10.667 0 18.667-2.667 24-8.533 4.267-4.267 6.4-10.133 6.4-16.533 0-5.867-1.6-10.667-4.267-14.4s-6.933-6.4-12.8-8c4.267-1.6 7.467-3.2 9.6-5.867s3.733-6.4 4.8-11.733c2.133-11.733 4.8-19.2 6.933-22.933v0zM925.333 476.267h-17.6v-24.533h16.533c4.8 0 8 1.067 10.667 3.2 2.133 2.133 3.733 5.333 3.733 9.067-0.533 8-4.8 12.267-13.333 12.267z" />
<glyph unicode="&#x6f;" glyph-name="back-left" data-tags="Bosch-IC-back-left" d="M646.4 113.067l-335.467 334.933 335.467 334.933 29.867-29.867-304.533-305.067 304.533-305.067z" />
<glyph unicode="&#x70;" glyph-name="close" data-tags="Bosch-IC-close" d="M846.933 753.067l-29.867 29.867-305.067-304.533-305.067 304.533-29.867-29.867 304.533-305.067-304.533-305.067 29.867-29.867 305.067 304.533 305.067-304.533 29.867 29.867-304.533 305.067z" />
<glyph unicode="&#x71;" glyph-name="forward-right" data-tags="Bosch-IC-forward-right" d="M377.6 113.067l-29.867 29.867 304.533 305.067-304.533 305.067 29.867 29.867 335.467-334.933z" />
<glyph unicode="&#x72;" glyph-name="less-minimize" data-tags="Bosch-IC-less-minimize" d="M170.667 469.333h682.667v-42.667h-682.667v42.667z" />
<glyph unicode="&#x73;" glyph-name="maximize" data-tags="Bosch-IC-maximize" d="M688 789.333v-42.667h92.267l-219.2-219.733 29.867-29.867 219.733 219.2v-97.6h42.667v170.667zM433.067 398.933l-219.733-219.2v97.6h-42.667v-170.667h165.333v42.667h-92.267l219.2 219.733z" />
<glyph unicode="&#x74;" glyph-name="minimize" data-tags="Bosch-IC-minimize" d="M846.933 753.067l-29.867 29.867-219.733-219.2v97.6h-42.667v-170.667h165.333v42.667h-92.267zM304 362.667h92.267l-219.2-219.733 29.867-29.867 219.733 219.2v-97.6h42.667v170.667h-165.333z" />
<glyph unicode="&#x75;" glyph-name="add" data-tags="Bosch-IC-add" d="M853.333 469.333h-320v320h-42.667v-320h-320v-42.667h320v-320h42.667v320h320z" />
<glyph unicode="&#x76;" glyph-name="reset" data-tags="Bosch-IC-reset" d="M896 448c0-211.733-172.267-384-384-384s-384 172.267-384 384 172.267 384 384 384c116.267 0 218.667-52.8 291.733-149.333h-163.733v-42.667h234.667v234.667h-42.667v-158.933c-81.067 102.933-193.067 158.933-320 158.933-235.2 0-426.667-191.467-426.667-426.667s191.467-426.667 426.667-426.667 426.667 191.467 426.667 426.667h-42.667z" />
<glyph unicode="&#x77;" glyph-name="refresh" data-tags="Bosch-IC-refresh" d="M938.667 448c0 235.2-191.467 426.667-426.667 426.667v-42.667c211.733 0 384-172.267 384-384 0-116.267-52.8-218.667-149.333-291.733v121.067h-42.667v-192h192v42.667h-116.267c102.933 81.067 158.933 193.067 158.933 320zM128 448c0 116.267 52.8 218.667 149.333 291.733v-121.067h42.667v192h-192v-42.667h116.267c-102.933-81.067-158.933-193.067-158.933-320 0-235.2 191.467-426.667 426.667-426.667v42.667c-211.733 0-384 172.267-384 384z" />
<glyph unicode="&#x78;" glyph-name="rotation" data-tags="Bosch-IC-rotation" d="M471.467 829.867l-4.267 42.667c-40.533-4.267-80.533-14.4-117.867-29.867l16.533-39.467c33.6 13.867 69.333 22.933 105.6 26.667zM330.133 786.133l-20.267 37.333c-37.333-20.267-71.467-45.333-100.8-75.733l30.4-29.867c26.667 27.2 57.067 50.133 90.667 68.267zM214.4 690.667l-33.067 26.667c-26.133-32.533-48-68.267-63.467-106.667l39.467-16.533c13.867 35.2 33.067 67.2 57.067 96.533zM85.333 448h42.667c0 37.867 5.333 75.2 16.533 110.933l-41.067 12.267c-12.267-39.467-18.133-81.067-18.133-123.2zM512 874.667v-42.667c211.733 0 384-172.267 384-384s-172.267-384-384-384c-116.267 0-218.667 52.8-291.733 149.333h163.733v42.667h-234.667v-234.667h42.667v158.933c81.067-102.933 193.067-158.933 320-158.933 235.2 0 426.667 191.467 426.667 426.667s-191.467 426.667-426.667 426.667z" />
<glyph unicode="&#x79;" glyph-name="search" data-tags="Bosch-IC-search" d="M910.933 164.267l-302.933 303.467c20.8 38.933 32 82.667 32 129.6 0 153.067-124.267 277.333-277.333 277.333s-277.333-124.267-277.333-277.333 124.267-277.333 277.333-277.333c46.933 0 90.667 11.733 129.6 32l303.467-303.467c18.667-18.667 42.133-27.733 65.067-27.733 20.8 0 40.533 7.467 55.467 22.4 32 32 29.867 86.4-5.333 121.067zM128 597.333c0 129.6 105.067 234.667 234.667 234.667s234.667-105.067 234.667-234.667-105.067-234.667-234.667-234.667-234.667 105.067-234.667 234.667zM886.4 73.6c-9.6-9.6-20.8-10.667-28.267-10.133-11.733 1.067-23.467 6.4-32 15.467l-296.533 296.533c20.8 15.467 39.467 34.133 54.933 54.933l296.533-296.533c8.533-8.533 14.4-20.267 15.467-32 0-7.467-1.067-18.667-10.133-28.267z" />
<glyph unicode="&#x7a;" glyph-name="up" data-tags="Bosch-IC-up" d="M817.067 283.733l-305.067 304.533-305.067-304.533-29.867 29.867 334.933 335.467 334.933-335.467z" />
<glyph unicode="&#x7b;" glyph-name="back-left-double" data-tags="Bosch-IC-back-left-double" d="M774.933 112.533l-357.333 334.933 335.467 335.467 29.867-29.867-304.533-304.533 325.333-305.067zM561.6 112.533l-357.333 334.933 335.467 335.467 29.867-29.867-304.533-304.533 325.333-305.067z" />
<glyph unicode="&#x7c;" glyph-name="augmented-reality" data-tags="Bosch-IC-augmented-reality" d="M937.6 225.067l-64 256.533c-5.867 29.867-32 51.733-62.933 51.733h-85.333v98.133l-213.333 118.4-213.333-118.4v-98.133h-85.333c-30.4 0-57.067-21.867-62.933-51.733l-64-255.467-0.533-1.067c-3.733-18.667 1.6-37.867 13.867-52.8s30.4-22.933 49.067-22.933h725.333c19.2 0 36.8 8.533 49.067 22.933s18.133 34.133 14.4 52.8zM341.333 582.4l149.333-83.2v-206.933l-149.333 83.2v206.933zM533.333 499.2l149.333 83.2v-206.933l-149.333-83.2v206.933zM660.267 618.667l-148.267-82.133-148.267 82.133 148.267 82.133 148.267-82.133zM891.2 199.467c-2.133-2.667-7.467-7.467-16.533-7.467h-725.333c-8.533 0-13.867 4.8-16.533 7.467-2.133 2.667-5.867 8.533-4.8 17.067l64 255.467 0.533 1.067c2.133 10.133 10.667 17.6 20.8 17.6h85.333v-140.8l213.333-118.4 213.333 118.4v140.8h85.333c10.133 0 19.2-7.467 20.8-17.6l64-256.533c1.6-8-2.133-13.867-4.267-17.067zM821.333 362.667c0-11.782-14.327-21.333-32-21.333s-32 9.551-32 21.333c0 11.782 14.327 21.333 32 21.333s32-9.551 32-21.333zM240 404.8c-11.2 2.667-22.933-4.267-26.133-15.467l-16-64c-2.667-11.2 4.267-22.933 15.467-26.133 1.6-0.533 3.733-0.533 5.333-0.533 9.6 0 18.133 6.4 20.8 16l16 64c2.667 11.733-4.267 22.933-15.467 26.133z" />
<glyph unicode="&#x7d;" glyph-name="battery_0" data-tags="Bosch-IC-battery_0" d="M938.667 576h-128v106.667h-725.333v-469.333h725.333v106.667h128v256zM768 256h-640v384h640v-384zM896 362.667h-85.333v170.667h85.333v-170.667z" />
<glyph unicode="&#x7e;" glyph-name="checkmark" data-tags="Bosch-IC-checkmark" d="M405.333 204.267l-228.267 228.8 29.867 29.867 198.4-197.867 411.733 411.2 29.867-29.867z" />
<glyph unicode="&#xa1;" glyph-name="arrow-right" data-tags="Bosch-IC-arrow-right" d="M740.267 633.6l-29.867-29.867 133.867-134.4h-758.933v-42.667h758.933l-133.867-134.4 29.867-29.867 186.133 185.6z" />
<glyph unicode="&#xa2;" glyph-name="artificial-intelligence" data-tags="Bosch-IC-artificial-intelligence" d="M490.667 533.333h85.333v-85.333h-85.333v85.333zM661.333 426.667h42.667v42.667h-42.667v42.667h42.667v42.667h-42.667v64h-64v42.667h-42.667v-42.667h-42.667v42.667h-42.667v-42.667h-64v-64h-42.667v-42.667h42.667v-42.667h-42.667v-42.667h42.667v-64h64v-42.667h42.667v42.667h42.667v-42.667h42.667v42.667h64v64zM618.667 405.333h-170.667v170.667h170.667v-170.667zM550.933 789.333c-140.8 0-229.333-45.867-271.467-140.8-21.333-48.533-23.467-128.533-23.467-152l-72.533-116.267c-10.667-16.533-11.2-36.8-1.6-53.867s27.2-27.733 46.4-27.733h27.733v-64c0-29.333 9.067-53.333 26.667-68.8 11.2-9.6 30.4-20.267 61.333-16.533l82.667 16.533v-59.2h42.667v111.467l-131.2-26.133c-11.733-1.6-20.8 0.533-27.2 6.4-8 6.933-12.267 19.733-12.267 36.8v106.667h-70.4c-5.867 0-8.533 3.733-9.067 5.333-1.067 1.6-2.667 5.867 0.533 10.667l78.933 126.933v6.4c0 1.067-1.6 92.8 19.733 140.267 12.267 28.267 51.2 115.2 232.533 115.2 77.333 0 142.933-26.133 190.933-76.267 44.267-46.4 68.8-110.4 68.8-179.733 0-76.267-36.8-113.067-78.933-155.733-49.067-49.067-49.067-112.533-49.067-142.933v-85.333h42.667v85.333c0 26.667 0 76.267 36.267 113.067 42.667 42.667 91.733 91.733 91.733 185.6 0 148.267-104 298.667-302.4 298.667z" />
<glyph unicode="&#xa3;" glyph-name="clipboard" data-tags="Bosch-IC-clipboard" d="M661.333 832v42.667h-298.667v-42.667h-149.333v-810.667h597.333v810.667h-149.333zM405.333 832h213.333v-42.667h-213.333v42.667zM768 64h-512v725.333h106.667v-42.667h298.667v42.667h106.667v-725.333zM341.333 597.333h341.333v-42.667h-341.333v42.667zM341.333 448h341.333v-42.667h-341.333v42.667zM341.333 298.667h149.333v-42.667h-149.333v42.667z" />
<glyph unicode="&#xa5;" glyph-name="chart-bar" data-tags="Bosch-IC-chart-bar" d="M597.333 106.667h-170.667v448h170.667v-448zM469.333 149.333h85.333v362.667h-85.333v-362.667zM853.333 106.667h-170.667v682.667h170.667v-682.667zM725.333 149.333h85.333v597.333h-85.333v-597.333zM341.333 106.667h-170.667v213.333h170.667v-213.333zM213.333 149.333h85.333v128h-85.333v-128z" />
<glyph unicode="&#xa7;" glyph-name="print" data-tags="Bosch-IC-print" d="M682.667 746.667v128h-341.333v-128h-256v-426.667c0-46.933 38.4-85.333 85.333-85.333h149.333v-213.333h384v213.333h149.333c46.933 0 85.333 38.4 85.333 85.333v426.667h-256zM384 832h256v-85.333h-256v85.333zM661.333 64h-298.667v298.667h298.667v-298.667zM896 320c0-23.467-19.2-42.667-42.667-42.667h-149.333v85.333h117.333v42.667h-618.667v-42.667h117.333v-85.333h-149.333c-23.467 0-42.667 19.2-42.667 42.667v384h768v-384zM405.333 170.667h128v-42.667h-128v42.667zM405.333 277.333h192v-42.667h-192v42.667zM832 608c0-17.673-14.327-32-32-32s-32 14.327-32 32c0 17.673 14.327 32 32 32s32-14.327 32-32z" />
<glyph unicode="&#xa8;" glyph-name="briefcase" data-tags="Bosch-IC-briefcase" d="M682.667 704v85.333h-341.333v-85.333h-256v-597.333h853.333v597.333h-256zM384 746.667h256v-42.667h-256v42.667zM341.333 661.333h554.667v-128h-768v128h213.333zM682.667 490.667h64v-42.667h-64v42.667zM277.333 490.667h64v-42.667h-64v42.667zM128 149.333v341.333h106.667v-85.333h149.333v85.333h256v-85.333h149.333v85.333h106.667v-341.333h-768z" />
<glyph unicode="&#xa9;" glyph-name="camera-switch" data-tags="Bosch-IC-camera-switch" d="M768 64c-36.8 0-71.467 16-95.467 42.667h52.8v42.667h-128v-128h42.667v57.6c32-36.267 78.933-57.6 128-57.6 93.867 0 170.667 76.8 170.667 170.667h-42.667c0-70.4-57.6-128-128-128zM896 362.667v-57.6c-32 36.267-78.933 57.6-128 57.6-93.867 0-170.667-76.8-170.667-170.667h42.667c0 70.4 57.6 128 128 128 36.8 0 71.467-16 95.467-42.667h-52.8v-42.667h128v128h-42.667zM561.067 242.667c-15.467-5.333-32-8-49.067-8-82.133 0-149.333 67.2-149.333 149.333s67.2 149.333 149.333 149.333 149.333-67.2 149.333-149.333c0-2.667 0-4.8 0-7.467 13.333 8 27.733 13.867 42.667 18.667-6.4 100.8-90.133 180.8-192 180.8-106.133 0-192-85.867-192-192s85.867-192 192-192c14.933 0 28.8 1.6 42.667 4.8 0.533 16 2.667 31.467 6.4 45.867zM554.667 149.333h-426.667v469.333h229.867l21.333 85.333h265.6l21.333-85.333h229.867v-213.333h42.667v256h-239.467l-21.333 85.333h-331.733l-21.333-85.333h-239.467v-554.667h469.333z" />
<glyph unicode="&#xaa;" glyph-name="camera" data-tags="Bosch-IC-camera" d="M699.2 661.333l-21.333 85.333h-331.733l-21.333-85.333h-239.467v-554.667h853.333v554.667h-239.467zM896 149.333h-768v469.333h229.867l21.333 85.333h265.6l21.333-85.333h229.867v-469.333zM512 576c-106.133 0-192-85.867-192-192s85.867-192 192-192 192 85.867 192 192-85.867 192-192 192zM512 234.667c-82.133 0-149.333 67.2-149.333 149.333s67.2 149.333 149.333 149.333 149.333-67.2 149.333-149.333-67.2-149.333-149.333-149.333z" />
<glyph unicode="&#xab;" glyph-name="book" data-tags="Bosch-IC-book" d="M576 789.333c-25.6 0-48.533-11.2-64-29.333-15.467 17.6-38.4 29.333-64 29.333h-362.667v-640h362.667c23.467 0 42.667-19.2 42.667-42.667h42.667c0 23.467 19.2 42.667 42.667 42.667h362.667v640h-362.667zM490.667 180.8c-12.8 7.467-27.2 11.2-42.667 11.2h-320v554.667h320c23.467 0 42.667-19.2 42.667-42.667v-523.2zM896 192h-320c-15.467 0-29.867-4.267-42.667-11.2v523.2c0 23.467 19.2 42.667 42.667 42.667h320v-554.667z" />
<glyph unicode="&#xac;" glyph-name="clear-all" data-tags="Bosch-IC-clear-all" d="M682.667 277.333h-512v512h512v-512zM213.333 320h426.667v426.667h-426.667v-426.667zM853.333 106.667h-533.333v42.667h490.667v490.667h42.667zM768 192h-533.333v42.667h490.667v490.667h42.667zM384 438.933l-100.267 100.8 29.867 29.867 70.4-69.867 155.733 155.2 29.867-29.867z" />
<glyph unicode="&#xae;" glyph-name="bookmark-delete" data-tags="Bosch-IC-bookmark-delete" d="M682.667 213.333h170.667v-42.667h-170.667v42.667zM768 362.667c-93.867 0-170.667-76.8-170.667-170.667s76.8-170.667 170.667-170.667 170.667 76.8 170.667 170.667-76.8 170.667-170.667 170.667zM768 64c-70.4 0-128 57.6-128 128s57.6 128 128 128 128-57.6 128-128-57.6-128-128-128zM597.333 64h-341.333v725.333h64v-333.333l106.667 53.333 106.667-53.333v333.333h234.667v-384c14.4 0 28.8-1.6 42.667-4.267v430.933h-277.333v42.667h-213.333v-42.667h-106.667v-810.667h426.667c-16 12.267-30.4 26.667-42.667 42.667zM362.667 832h128v-306.667l-64 32-64-32v306.667z" />
<glyph unicode="&#xaf;" glyph-name="cloud" data-tags="Bosch-IC-cloud" d="M768 165.333h-512c-93.867 0-170.667 76.8-170.667 170.667 0 83.2 60.8 154.133 141.333 168 13.867 80.533 84.8 141.333 168 141.333 18.133 0 35.733-2.667 52.267-8 42.133 58.667 109.333 93.333 182.4 93.333 123.733 0 224-100.267 224-224 0-7.467-0.533-14.933-1.067-22.4 52.8-29.867 86.4-86.933 86.4-148.267 0-93.867-76.8-170.667-170.667-170.667zM394.667 602.667c-67.2 0-123.2-52.267-127.467-118.933l-1.067-18.667-18.667-1.067c-67.2-4.8-119.467-60.8-119.467-128 0-70.4 57.6-128 128-128h512c70.4 0 128 57.6 128 128 0 50.133-29.867 96-75.733 116.8l-14.933 6.933 2.667 16.533c1.6 10.133 2.667 20.8 2.667 30.933 0 99.733-81.6 181.333-181.333 181.333-64 0-122.133-33.067-155.733-88l-9.6-16-17.067 7.467c-16.533 6.933-34.133 10.667-52.267 10.667z" />
<glyph unicode="&#xb0;" glyph-name="arrow-left-up-frame" data-tags="Bosch-IC-arrow-left-up-frame" d="M534.933 554.667v42.667h-172.267v-172.267h42.667v99.2l241.067-240.533 29.867 29.867-240.533 241.067zM813.867 749.867c-166.4 166.4-436.8 166.4-603.2 0s-166.4-436.8 0-603.2c82.667-83.733 192-125.333 301.333-125.333s218.667 41.6 301.867 124.8c166.4 166.4 166.4 437.333 0 603.733zM783.467 176.533c-149.867-149.867-393.6-149.867-542.933 0-149.867 149.867-149.867 393.067 0 542.933s393.6 149.867 542.933 0c149.867-149.867 149.867-393.067 0-542.933z" />
<glyph unicode="&#xb1;" glyph-name="bed" data-tags="Bosch-IC-bed" d="M853.333 490.667h-469.333c0 46.933-38.4 85.333-85.333 85.333h-85.333c-46.933 0-85.333-38.4-85.333-85.333v213.333h-42.667v-512h42.667v64h768v-64h42.667v213.333c0 46.933-38.4 85.333-85.333 85.333zM213.333 533.333h85.333c23.467 0 42.667-19.2 42.667-42.667h-170.667c0 23.467 19.2 42.667 42.667 42.667zM128 448h106.667v-149.333h-106.667v149.333zM277.333 298.667v149.333h576c23.467 0 42.667-19.2 42.667-42.667v-106.667h-618.667z" />
<glyph unicode="&#xb4;" glyph-name="blog" data-tags="Bosch-IC-blog" d="M914.133 764.8c-16 16-36.8 24.533-59.2 24.533s-43.2-8.533-59.2-24.533l-241.6-241.6-39.467-157.867 157.867 39.467 241.6 241.6c16 16 24.533 36.8 24.533 59.2s-8.533 43.2-24.533 59.2zM572.8 424.533l13.867 53.333 40-40-53.867-13.333zM885.867 678.4l-219.733-219.733-58.133 58.133 219.733 219.733c7.467 6.4 17.067 10.133 26.667 10.133 11.2 0 21.333-4.267 29.333-12.267s12.267-18.133 12.267-29.333c0-9.6-3.733-19.2-10.133-26.667zM170.667 512h320v-42.667h-320v42.667zM170.667 405.333h213.333v-42.667h-213.333v42.667zM170.667 618.667h320v-42.667h-320v42.667zM810.667 277.333h-477.333l-120-102.933v102.933h-85.333v405.333h517.867l42.667 42.667h-603.2v-490.667h85.333v-153.067l178.667 153.067h504v283.2l-42.667-42.667z" />
<glyph unicode="&#xb5;" glyph-name="chip" data-tags="Bosch-IC-chip" d="M661.333 597.333h-298.667v-298.667h298.667v298.667zM618.667 341.333h-213.333v213.333h213.333v-213.333zM938.667 512v42.667h-149.333v170.667h-170.667v149.333h-42.667v-149.333h-128v149.333h-42.667v-149.333h-170.667v-170.667h-149.333v-42.667h149.333v-128h-149.333v-42.667h149.333v-170.667h170.667v-149.333h42.667v149.333h128v-149.333h42.667v149.333h170.667v170.667h149.333v42.667h-149.333v128h149.333zM746.667 213.333h-469.333v469.333h469.333v-469.333z" />
<glyph unicode="&#xb6;" glyph-name="arrow-up" data-tags="Bosch-IC-arrow-up" d="M697.6 676.267l-185.6 186.133-185.6-186.133 29.867-29.867 134.4 133.867v-758.933h42.667v758.933l134.4-133.867z" />
<glyph unicode="&#xb7;" glyph-name="cloud-upload" data-tags="Bosch-IC-cloud-upload" d="M852.267 574.933c0.533 7.467 1.067 14.933 1.067 22.4 0 123.733-100.267 224-224 224-73.067 0-140.267-34.667-182.4-93.333-17.067 5.333-34.667 8-52.267 8-83.2 0-154.133-60.8-168-141.333-80.533-13.867-141.333-84.8-141.333-168 0-93.867 76.8-170.667 170.667-170.667h192v42.667h-192c-70.4 0-128 57.6-128 128 0 67.2 52.267 123.2 118.933 127.467l18.667 1.067 1.067 18.667c4.8 67.2 60.8 119.467 128 119.467 18.133 0 35.733-3.733 52.267-11.2l17.067-7.467 9.6 16c33.6 54.933 91.733 88 155.733 88 99.733 0 181.333-81.6 181.333-181.333 0-10.133-1.067-20.267-2.667-30.933l-2.667-16.533 14.933-6.933c45.867-20.267 75.733-66.133 75.733-116.267 0-70.4-57.6-128-128-128h-192v-42.667h192c93.867 0 170.667 76.8 170.667 170.667 0 61.867-33.6 118.4-86.4 148.267zM625.067 347.733l29.867 29.867-142.933 143.467-142.933-143.467 29.867-29.867 91.733 91.2v-396.267h42.667v396.267z" />
<glyph unicode="&#xb8;" glyph-name="command" data-tags="Bosch-IC-command" d="M746.667 106.667c-58.667 0-106.667 48-106.667 106.667v64h-256v-64c0-58.667-48-106.667-106.667-106.667s-106.667 48-106.667 106.667 48 106.667 106.667 106.667h64v256h-64c-58.667 0-106.667 48-106.667 106.667s48 106.667 106.667 106.667 106.667-48 106.667-106.667v-64h256v64c0 58.667 48 106.667 106.667 106.667s106.667-48 106.667-106.667-48-106.667-106.667-106.667h-64v-256h64c58.667 0 106.667-48 106.667-106.667s-48-106.667-106.667-106.667zM682.667 277.333v-64c0-35.2 28.8-64 64-64s64 28.8 64 64-28.8 64-64 64h-64zM277.333 277.333c-35.2 0-64-28.8-64-64s28.8-64 64-64 64 28.8 64 64v64h-64zM384 320h256v256h-256v-256zM682.667 618.667h64c35.2 0 64 28.8 64 64s-28.8 64-64 64-64-28.8-64-64v-64zM277.333 746.667c-35.2 0-64-28.8-64-64s28.8-64 64-64h64v64c0 35.2-28.8 64-64 64z" />
<glyph unicode="&#xba;" glyph-name="car-rental" data-tags="Bosch-IC-car-rental" d="M855.467 789.333h-218.133c-45.333 0-82.667-37.333-82.667-83.2v-154.133c0-45.867 37.333-83.2 83.2-83.2h23.467v-309.867l85.333-57.067 85.333 57.067v310.4h23.467c45.867 0 83.2 37.333 83.2 83.2v153.6c0 45.867-37.333 83.2-83.2 83.2zM789.333 181.867l-42.667-28.267-42.667 28.267v287.467h85.333v-287.467zM896 552.533c0-22.4-18.133-40.533-40.533-40.533h-217.6c-22.4 0-40.533 18.133-40.533 40.533v153.6c0 22.4 18.133 40.533 40.533 40.533h218.133c22.4 0 40.533-18.133 40.533-40.533v-153.6zM274.667 448h-2.667c-32.533 0-58.667-26.133-58.667-58.667v-10.667c0-32.533 26.133-58.667 58.667-58.667h90.667c32.533 0 58.667 26.133 58.667 58.667 0 32-21.333 54.4-56 58.667-25.067 2.667-90.667 10.667-90.667 10.667zM378.667 378.667c0-9.067-6.933-16-16-16h-90.667c-9.067 0-16 6.933-16 16v10.667c0 8.533 6.4 15.467 14.933 16 10.133-1.067 66.667-8 89.067-10.667 18.667-2.133 18.667-10.667 18.667-16zM261.333 234.667c0-60.8-12.267-80.533-16.533-85.333h-81.6c-5.333 8-13.867 37.333-13.867 85.333v149.333c0 44.8 37.867 92.8 37.867 93.333l27.733 34.667h-65.6c-15.467 0-21.333 12.8-21.333 21.333 0 15.467 11.733 20.267 18.133 21.333h104l4.8 14.4c0 0.533 26.133 76.8 60.8 121.6l0.533 1.067c34.133 49.067 152.533 56 195.2 54.933h7.467c5.333 16 13.867 30.4 24.533 42.667h-30.933c-4.267 0-44.8 1.067-92.267-6.4-68.267-10.667-115.2-33.067-138.667-66.667-29.333-37.867-52.267-92.8-61.867-118.933h-78.933c-19.2-3.2-55.467-19.733-55.467-64 0-26.667 17.6-54.4 47.467-61.867-12.8-22.933-26.133-54.933-26.133-87.467v-149.333c0-38.4 5.333-128 53.333-128h92.267l1.6 0.533c37.867 6.4 46.933 68.267 49.067 106.133h315.733v42.667h-357.333v-21.333z" />
<glyph unicode="&#xbb;" glyph-name="colorpicker" data-tags="Bosch-IC-colorpicker" d="M889.6 825.6c-50.133 50.133-129.067 50.133-179.733 0l-80.533-80.533-53.333 53.333-115.733-115.733 53.333-53.333-253.867-253.867-143.467-235.2c-6.4-10.133-9.6-21.867-9.6-33.6 0-35.2 28.8-64 64-64 11.733 0 23.467 3.2 33.067 9.067l236.267 144.533 253.333 253.333 53.333-53.333 115.733 115.733-53.333 53.333 81.067 81.067c50.133 50.133 50.133 129.067-0.533 179.2zM413.333 230.4l-231.467-141.867c-3.2-2.133-6.933-3.2-11.2-3.2-11.733 0-21.333 9.6-21.333 21.333 0 3.733 1.067 8 3.2 11.2l140.8 230.933 250.667 250.667 118.933-119.467-249.6-249.6zM859.733 676.267l-111.467-110.933 53.333-53.333-54.933-54.933-225.6 225.6 54.933 54.933 53.333-53.333 110.933 110.933c33.6 33.6 85.867 33.6 118.933 0 33.6-33.067 33.6-85.333 0.533-118.933z" />
<glyph unicode="&#xbf;" glyph-name="battery_2" data-tags="Bosch-IC-battery_2" d="M938.667 576h-128v106.667h-725.333v-469.333h725.333v106.667h128v256zM768 256h-640v384h640v-384zM896 362.667h-85.333v170.667h85.333v-170.667zM170.667 597.333h112v-298.667h-112v298.667zM320 597.333h106.667v-298.667h-106.667v298.667z" />
<glyph unicode="&#xc1;" glyph-name="connection-on" data-tags="Bosch-IC-connection-on" d="M868.267 774.4l-30.4 30.4-145.6-145.6c-35.2 28.8-80 44.8-126.933 44.8-53.867 0-105.067-20.8-143.467-59.2l-37.867-38.4-27.733 27.733-30.4-30.4 27.733-27.733-38.4-38.4c-38.4-38.4-59.2-89.067-59.2-142.933 0-46.933 16-91.2 44.8-127.467l-145.6-145.6 30.4-30.4 145.6 145.6c35.733-28.8 80.533-44.8 127.467-44.8 53.867 0 105.067 20.8 143.467 59.2l38.4 38.4 27.733-27.733 30.4 30.4-27.733 27.733 38.4 38.4c38.4 38.4 59.2 89.067 59.2 142.933 0 46.933-16 91.2-44.8 127.467l144.533 145.6zM571.733 281.6c-30.4-30.4-70.4-46.933-113.067-46.933s-82.667 16.533-113.067 46.933c-30.4 29.867-46.933 70.4-46.933 113.067s16.533 82.667 46.933 113.067l38.4 38.4 226.133-226.133-38.4-38.4zM678.4 388.267l-38.4-38.4-225.6 226.133 38.4 38.4c29.867 30.4 69.867 46.933 112.533 46.933s82.667-16.533 113.067-46.933c30.4-29.867 46.933-70.4 46.933-113.067s-16.533-82.667-46.933-113.067z" />
<glyph unicode="&#xc6;" glyph-name="development" data-tags="Bosch-IC-development" d="M309.333 515.2v41.067l112 54.4v-53.333l-58.133-21.333 58.133-23.467v-51.733l-112 54.4zM526.4 661.333h46.4l-81.067-256h-46.4l81.067 256zM603.2 514.133l58.133 21.333-58.133 23.467v51.733l112-54.4v-40.533l-112-54.4v52.8zM874.667 326.933v377.067c0 35.2-28.8 64-64 64h-597.333c-35.2 0-64-28.8-64-64v-377.067l-64-85.333v-49.6c0-35.2 28.8-64 64-64h725.333c35.2 0 64 28.8 64 64v49.6l-64 85.333zM213.333 725.333h597.333c11.733 0 21.333-9.6 21.333-21.333v-362.667h-640v362.667c0 11.733 9.6 21.333 21.333 21.333zM181.333 298.667h661.333l32-42.667h-725.333l32 42.667zM874.667 170.667h-725.333c-11.733 0-21.333 9.6-21.333 21.333v21.333h768v-21.333c0-11.733-9.6-21.333-21.333-21.333z" />
<glyph unicode="&#xc7;" glyph-name="document-add" data-tags="Bosch-IC-document-add" d="M853.333 213.333h-64v64h-42.667v-64h-64v-42.667h64v-64h42.667v64h64zM768 21.333c-93.867 0-170.667 76.8-170.667 170.667s76.8 170.667 170.667 170.667 170.667-76.8 170.667-170.667-76.8-170.667-170.667-170.667zM768 320c-70.4 0-128-57.6-128-128s57.6-128 128-128 128 57.6 128 128-57.6 128-128 128zM298.667 576h341.333v-42.667h-341.333v42.667zM298.667 469.333h341.333v-42.667h-341.333v42.667zM298.667 362.667h213.333v-42.667h-213.333v42.667zM649.6 874.667h-436.267v-853.333h426.667c-16 12.267-30.4 26.667-42.667 42.667h-341.333v768h362.667v-170.667h149.333v-256c14.4 0 28.8-1.6 42.667-4.267v289.6l-161.067 184zM661.333 704v92.8l81.067-92.8h-81.067z" />
<glyph unicode="&#xcd;" glyph-name="copyright-frame" data-tags="Bosch-IC-copyright-frame" d="M682.133 330.667c-35.733-64-88-96-157.333-96-108.267 0-182.933 86.933-182.933 213.867 0 127.467 72.533 212.8 180.267 212.8 67.2 0 112.533-26.667 149.867-89.6l-35.733-22.933c-34.667 56-61.867 73.6-112.533 73.6-83.733 0-135.467-66.667-135.467-174.933 0-109.333 51.2-174.4 137.6-174.4 54.4 0 88 22.4 120.533 78.933l35.733-21.333zM512 21.333c-235.2 0-426.667 191.467-426.667 426.667s191.467 426.667 426.667 426.667 426.667-191.467 426.667-426.667-191.467-426.667-426.667-426.667zM512 832c-211.733 0-384-172.267-384-384s172.267-384 384-384 384 172.267 384 384-172.267 384-384 384z" />
<glyph unicode="&#xcf;" glyph-name="damper" data-tags="Bosch-IC-damper" d="M932.267 697.6l-170.667 170.667-30.4-30.4 17.067-17.067-330.667-330.667 22.933-22.933-278.933-278.933-18.667 18.667-30.4-30.4 128-128 30.4 30.4-18.667 18.667 278.933 278.933 22.933-22.933 330.667 330.667 17.067-17.067 30.4 30.4zM222.4 128l-30.4 30.4 278.933 278.933 30.4-30.4-278.933-278.933zM554.667 414.4l-76.267 76.267 300.267 300.267 76.267-76.267-300.267-300.267z" />
<glyph unicode="&#xd3;" glyph-name="danger-flash" data-tags="Bosch-IC-danger-flash" d="M512 876.267l-425.6-769.6h851.2l-425.6 769.6zM512 787.733l353.067-638.4h-706.133l353.067 638.4zM597.333 426.667h-85.333l42.667 85.333h-85.333l-42.667-128h64l-64-128z" />
<glyph unicode="&#xd8;" glyph-name="construction" data-tags="Bosch-IC-construction" d="M853.333 682.667v41.067l-149.333 138.667v12.267h-128v-6.4l-405.333-144v-41.6h85.333v-170.667h-85.333v-213.333h213.333v213.333h-85.333v170.667h277.333v-618.667h-405.333v-42.667h682.667v42.667h-149.333v618.667h149.333zM341.333 341.333h-128v128h128v-128zM789.333 725.333h-85.333v78.933l85.333-78.933zM661.333 832v-106.667h-42.667v106.667h42.667zM300.8 725.333l275.2 97.6v-97.6h-275.2zM661.333 64h-42.667v618.667h42.667v-618.667z" />
<glyph unicode="&#xd9;" glyph-name="do-not-disturb" data-tags="Bosch-IC-do-not-disturb" d="M512 874.667c-117.867 0-213.333-95.467-213.333-213.333v-21.333h128v21.333c0 46.933 38.4 85.333 85.333 85.333s85.333-38.4 85.333-85.333c0-32-10.667-67.733-90.133-85.867l-208.533-46.4v-507.733h426.667v640c0 117.867-95.467 213.333-213.333 213.333zM682.667 64h-341.333v430.933l175.467 38.933c82.667 19.2 123.2 60.8 123.2 127.467 0 70.4-57.6 128-128 128-63.467 0-116.267-46.4-126.4-106.667h-43.2c10.667 84.267 82.667 149.333 169.6 149.333 93.867 0 170.667-76.8 170.667-170.667v-597.333zM512 405.333c-70.4 0-128-57.6-128-128s57.6-128 128-128 128 57.6 128 128-57.6 128-128 128zM512 362.667c16 0 30.4-4.267 43.2-11.733l-116.8-116.8c-7.467 12.8-11.733 27.2-11.733 43.2 0 46.933 38.4 85.333 85.333 85.333zM512 192c-16 0-30.4 4.267-43.2 11.733l116.8 116.8c7.467-12.8 11.733-27.2 11.733-43.2 0-46.933-38.4-85.333-85.333-85.333z" />
<glyph unicode="&#xe5;" glyph-name="calculate" data-tags="Bosch-IC-calculate" d="M362.667 234.667h42.667v64h64v42.667h-64v64h-42.667v-64h-64v-42.667h64zM298.667 597.333h170.667v-42.667h-170.667v42.667zM554.667 384h170.667v-42.667h-170.667v42.667zM554.667 298.667h170.667v-42.667h-170.667v42.667zM590.933 497.067l49.067 48.533 49.067-48.533 29.867 29.867-48.533 49.067 48.533 49.067-29.867 29.867-49.067-48.533-49.067 48.533-29.867-29.867 48.533-49.067-48.533-49.067zM170.667 789.333v-682.667h682.667v682.667h-682.667zM810.667 149.333h-597.333v597.333h597.333v-597.333z" />
<glyph unicode="&#xe6;" glyph-name="certificate-pki" data-tags="Bosch-IC-certificate-pki" d="M85.333 789.333v-512h426.667v42.667h-384v426.667h768v-426.667h-42.667v-42.667h85.333v512zM768 193.6l-85.333 68.267-85.333-68.267v169.067h-42.667v-257.6l128 102.4 128-102.4v257.6h-42.667zM826.133 590.933c-0.533 1.6 0 8 0.533 12.267 1.6 11.733 3.2 27.733-6.4 41.067-10.133 13.333-25.6 16.533-37.333 18.667-4.267 1.067-10.133 2.133-11.733 3.2s-4.267 6.4-6.4 10.133c-5.333 10.667-13.333 24.533-29.333 29.867-15.467 5.333-29.333-1.067-40.533-6.4-3.2-2.133-9.6-4.8-11.733-4.8-2.667 0-8.533 3.2-12.267 4.8-11.2 4.8-25.067 11.2-40.533 6.4-15.467-5.333-23.467-19.733-29.333-29.867-2.133-3.733-4.8-9.067-6.4-10.133s-7.467-2.667-11.733-3.2c-11.733-2.133-27.733-5.333-37.333-18.667s-8-29.333-6.4-41.067c0.533-4.267 1.067-10.667 0.533-12.267s-4.8-6.4-7.467-9.067c-8-8.533-19.2-20.267-19.2-37.333 0-16.533 11.2-28.8 19.2-37.333 2.667-3.2 6.933-7.467 7.467-9.067s0-8-0.533-12.267c-1.6-11.733-3.2-27.733 6.4-41.067 10.133-13.333 25.6-16.533 37.333-18.667 4.267-1.067 10.133-2.133 11.733-3.2s4.267-6.4 6.4-10.133c5.333-10.667 13.333-24.533 29.333-29.867 15.467-5.333 29.333 1.067 40.533 6.4 3.2 2.133 9.6 4.8 11.733 4.8 2.667 0 8.533-3.2 12.267-4.8 8-4.267 18.133-8.533 28.8-8.533 3.733 0 7.467 0.533 11.733 2.133 15.467 5.333 23.467 19.733 29.333 29.867 2.133 3.733 4.8 9.067 6.4 10.133s7.467 2.667 11.733 3.2c11.733 2.133 27.733 5.333 37.333 18.667s8 29.333 6.4 41.067c-0.533 4.267-1.067 10.667-0.533 12.267s4.8 6.4 7.467 9.067c8 8.533 19.2 20.267 19.2 37.333 0 16.533-11.2 28.8-19.2 37.333-2.667 3.2-6.933 7.467-7.467 9.067zM801.6 535.467c-6.4-6.933-13.867-14.933-17.067-25.067s-2.133-20.8-1.067-30.4c0.533-3.2 1.067-7.467 1.067-10.133-2.667-0.533-6.933-1.6-10.133-2.133-9.6-2.133-19.733-4.267-28.8-10.667s-13.867-16-18.667-24c-1.6-2.667-3.733-6.933-5.333-9.067-2.133 0.533-6.4 2.667-9.067 3.733-8.533 4.267-18.667 8.533-29.867 8.533s-21.333-4.267-29.867-8.533c-2.667-1.067-6.4-2.667-9.067-3.733-1.6 2.133-3.733 6.4-5.333 9.067-4.8 8-9.6 17.6-18.667 24-9.067 6.933-19.733 9.067-28.8 10.667-3.2 0.533-7.467 1.067-10.133 2.133 0 2.667 0.533 6.933 1.067 10.133 1.067 9.067 2.133 19.733-1.067 30.4-3.733 10.667-10.667 18.133-17.067 25.067-2.667 2.667-5.867 6.4-7.467 8.533 1.6 2.667 5.333 6.4 7.467 8.533 6.4 6.933 13.867 14.933 17.067 25.067s2.133 20.8 1.067 30.4c-0.533 3.2-1.067 7.467-1.067 10.133 2.667 0.533 6.933 1.6 10.133 2.133 9.6 2.133 19.733 4.267 28.8 10.667s13.867 16 18.667 24c1.6 2.667 3.733 6.933 5.333 9.067 2.133-0.533 6.4-2.667 9.067-3.733 8.533-4.267 18.667-8.533 29.867-8.533s21.333 4.8 29.867 8.533c2.667 1.067 6.4 2.667 9.067 3.733 1.6-2.133 3.733-6.4 5.333-9.067 4.8-8 9.6-17.6 18.667-24 9.067-6.933 19.733-9.067 28.8-10.667 3.2-0.533 7.467-1.067 10.133-2.133 0-2.667-0.533-6.933-1.067-10.133-1.067-9.067-2.133-19.733 1.067-30.4 3.733-10.667 10.667-18.133 17.067-25.067 2.667-2.667 5.867-6.4 7.467-8.533-1.6-2.667-5.333-6.4-7.467-8.533zM170.667 597.333v-128h35.2v43.2h24c28.8 0 46.4 16 46.4 41.6 0 27.2-17.6 43.2-48 43.2h-57.6zM242.667 555.2c0-10.667-6.4-16.533-17.6-16.533h-18.667v32.533h19.2c11.2 0 17.067-5.333 17.067-16zM293.333 597.333v-128h35.2v34.667l10.133 12.267 30.4-46.933h38.933l-46.4 73.6 42.667 54.4h-38.4l-37.333-49.6v49.6zM426.667 597.333h35.2v-128h-35.2v128z" />
</font>
</defs>
</svg>
